{
.appVersion = "3260";
.formatVersion = 3;
DisplayStrings = (
"naß",
Z,
Ottokar.,
"Qualität",
Xingpinqu
);
classes = (
{
code = "A B D E F H I J K L M N O P Q R S U Z Aacute Abreve Acircumflex Adieresis Agrave Amacron Aogonek Aring Atilde Dcaron Dcroat Eacute Ecaron Ecircumflex Edieresis Edotaccent Egrave Emacron Eogonek Etilde Hbar Hcircumflex IJ Iacute Icircumflex Idieresis Idotaccent Igrave Imacron Itilde Nacute Ncaron Ncommaaccent Ntilde Racute Rcaron Rcommaaccent Sacute Scaron Scedilla Scircumflex Scommaaccent Oacute Ocircumflex Odieresis Ograve Ohungarumlaut Omacron Oslash Otilde Uacute Ucircumflex Udieresis Ugrave Uhungarumlaut Umacron Uogonek Uring Utilde Zacute Zcaron Zdotaccent Jacute Jcircumflex
";
name = left_ortho;
},
{
code = "W V Y T T_T Wacute Wcircumflex Wdieresis Wgrave Yacute Ycircumflex Ydieresis Ygrave Ytilde Tcaron Tcedilla Tcommaaccent
";
name = right_overhang;
},
{
code = "W V Y T T_T Wacute Wcircumflex Wdieresis Wgrave Yacute Ycircumflex Ydieresis Ygrave Ytilde Tcaron Tcedilla Tcommaaccent";
name = left_overhang;
},
{
code = "A H I J M N O Q U Z Aacute Abreve Acircumflex Adieresis Agrave Amacron Aogonek Aring Atilde Hbar Hcircumflex Iacute Icircumflex Idieresis Idotaccent Igrave Imacron Itilde Jacute Nacute Ncaron Ncommaaccent Ntilde Oacute Ocircumflex Odieresis Ograve Ohungarumlaut Omacron Oslash Otilde Uacute Ucircumflex Udieresis Ugrave Uhungarumlaut Umacron Uogonek Uring Utilde Zacute Zcaron Zdotaccent
";
name = right_ortho;
},
{
code = "t ";
name = trigger_special_h;
}
);
customParameters = (
{
name = "Use Typo Metrics";
value = 1;
}
);
date = "2024-04-19 11:50:45 +0000";
familyName = Brokken;
featurePrefixes = (
{
automatic = 1;
code = "languagesystem DFLT dflt;

languagesystem latn dflt;
languagesystem latn AZE;
languagesystem latn CRT;
languagesystem latn KAZ;
languagesystem latn TAT;
languagesystem latn TRK;
languagesystem latn ROM;
languagesystem latn MOL;
languagesystem latn NLD;
";
name = Languagesystems;
}
);
features = (
{

glyphs = (
{
glyphname = A;
kernLeft = A;
kernRight = A;
lastChange = "2024-05-20 12:51:17 +0000";
layers = (
{
anchors = (
{
name = bottom;
pos = (396,17);
},
{
name = ogonek;
pos = (458,8);
},
{
name = top;
pos = (403,714);
}
);
hints = (
{
horizontal = 1;
place = (662,-20);
target = down;
type = TopGhost;
},
{
place = (35,84);
type = Stem;
},
{
place = (354,113);
type = Stem;
},
{
place = (44,147.563);
type = Stem;
},
{
place = (348,118);
type = Stem;
}
);
layerId = m01;
shapes = (
{
closed = 1;
nodes = (
(157,19,l),
(259,500,l),
(460,660,l),
(248,699,l),
(137,622,l),
(44,123,l),
(-13,71,l),
(-11,0,l),
(133,0,l)
);
},
{
closed = 1;
nodes = (
(353,217,l),
(441,302,l),
(438,360,l),
(37,249,l),
(-1,162,l),
(31,151,l)
);
},
{
closed = 1;
nodes = (
(638,700,l),
(352,700,l),
(226,520,l),
(324,568,l),
(570,568,l),
(660,684,l)
);
},
{
closed = 1;
nodes = (
(660,684,l),
(467,520,l),
(449,457,l),
(393,163,l),
(372,14,l),
(417,0,l),
(538,24,l),
(627,516,l),
(672,582,l),
(689,662,l)
);
},
{
closed = 1;
nodes = (
(565,80,l),
(556,126,l),
(409,154,l),
(344,48,l),
(351,0,l),
(538,0,l)
);
},
{
closed = 1;
nodes = (
(90,487,l),
(139,472,l),
(137,622,l),
(103,601,l)
);
}
);
width = 609;
}
);
metricLeft = B;
unicode = 65;
},
{
glyphname = AE;
kernLeft = A;
kernRight = E;
lastChange = "2024-05-20 12:59:20 +0000";
layers = (
{
anchors = (
{
name = top;
pos = (597,714);
}
);
layerId = m01;
shapes = (
{
closed = 1;
nodes = (
(157,19,l),
(259,500,l),
(460,660,l),
(248,699,l),
(137,622,l),
(44,123,l),
(-13,71,l),
(-11,0,l),
(133,0,l)
);
},
{
closed = 1;
nodes = (
(353,217,l),
(441,302,l),
(438,360,l),
(37,249,l),
(-1,162,l),
(31,151,l)
);
},
{
closed = 1;
nodes = (
(638,700,l),
(352,700,l),
(226,520,l),
(324,568,l),
(570,568,l),
(660,684,l)
);
},
{
closed = 1;
nodes = (
(660,684,l),
(467,520,l),
(449,457,l),
(393,163,l),
(372,14,l),
(417,0,l),
(538,24,l),
(627,516,l),
(672,582,l),
(689,662,l)
);
},
{
closed = 1;
nodes = (
(565,80,l),
(556,126,l),
(409,154,l),
(367,54,l),
(337,25,l),
(538,0,l)
);
},
{
closed = 1;
nodes = (
(90,487,l),
(139,472,l),
(137,622,l),
(103,601,l)
);
},
{
closed = 1;
nodes = (
(372,0,l),
(810,0,l),
(867,163,l),
(658,111,l),
(568,117,l),
(544,117,l),
(566,222,l),
(615,494,l),
(550,552,l),
(719,644,l),
(488,639,l),
(400,178,l),
(337,25,l)
);
},
{
closed = 1;
nodes = (
(730,296,l),
(878,386,l),
(880,464,l),
(185,305,l),
(178,262,l)
);
},
{
closed = 1;
nodes = (
(837,538,l),
(973,613,l),
(976,702,l),
(638,661,l),
(528,532,l)
);
},
{
closed = 1;
nodes = (
(447,700,l),
(431,591,l),
(493,557,l),
(827,628,l),
(739,700,l)
);
},
{
closed = 1;
nodes = (
(658,111,l),
(784,92,l),
(867,163,l),
(844,188,l),
(684,164,l)
);
}
);
width = 914;
}
);
metricLeft = A;
metricRight = E;
unicode = 198;
},
{
glyphname = B;
kernLeft = A;
lastChange = "2024-06-10 10:27:05 +0000";
layers = (
{
layerId = m01;
shapes = (
{
closed = 1;
nodes = (
(37,44,l),
(65,0,l),
(406,-1,l),
(512,25,l),
(615,263,l),
(582,363,l),
(471,356,l),
(620,426,l),
(694,584,l),
(666,700,l),
(487,700,l),
(443,675,l),
(409,700,l),
(160,622,l),
(111,353,l),
(87,348,l),
(24,244,l),
(43,205,l),
(86,219,l),
(83,203,l),
(21,65,l)
);
},
{
closed = 1;
nodes = (
(245,545,l),
(332,559,l),
(513,583,l),
(494,497,l),
(477,436,l),
(274,387,l),
(298,520,l)
);
},
{
closed = 1;
nodes = (
(419,329,l),
(431,334,l),
(483,141,l),
(140,135,l),
(238,187,l),
(253,269,l)
);
},
{
closed = 1;
nodes = (
(114,700,l),
(99,591,l),
(143,558,l),
(192,563,l),
(409,700,l)
);
},
{
closed = 1;
nodes = (
(456,124,l),
(513,136,l),
(488,203,l)
);
}
);
width = 633;
}
);
unicode = 66;
},
{
glyphname = C;
kernLeft = O;
lastChange = "2024-05-20 11:04:14 +0000";
layers = (
{
anchors = (
{
name = bottom;
pos = (313,48);
},
{
name = top;
pos = (370,714);
}
);
layerId = m01;
shapes = (
{
closed = 1;
nodes = (
(331,68,l),
(235,101,l),
(200,211,l),
(195,235,l),
(271,557,l),
(291,603,l),
(246,700,l),
(140,655,l),
(73,499,l),
(9,209,l),
(7,84,l),
(24,43,l)
);
},
{
closed = 1;
nodes = (
(97,0,l),
(171,30,l),
(297,0,l),
(476,1,l),
(533,179,l),
(507,231,l),
(367,177,l),
(346,123,l),
(308,78,l),
(24,43,l)
);
},
{
closed = 1;
nodes = (
(612,444,l),
(656,672,l),
(536,704,l),
(502,686,l),
(246,700,l),
(227,594,l),
(204,484,l),
(360,608,l),
(442,613,l),
(420,447,l),
(496,435,l)
);
}
);
width = 589;
}
);
unicode = 67;
},
{
glyphname = D;
kernLeft = A;
kernRight = O;
lastChange = "2024-05-09 10:52:54 +0000";
layers = (
{
anchors = (
{
name = top;
pos = (401,714);
}
);
layerId = m01;
shapes = (
{
closed = 1;
nodes = (
(371,-14,l),
(622,232,l),
(693,521,l),
(504,700,l),
(333,696,l),
(313,549,l),
(472,554,l),
(539,554,l),
(461,292,l),
(357,110,l),
(97,125,l),
(244,-21,l)
);
},
{
closed = 1;
nodes = (
(74,-6,l),
(243,166,l),
(325,597,l),
(195,682,l),
(194,663,l),
(91,171,l),
(46,21,l)
);
},
{
closed = 1;
nodes = (
(199,528,l),
(516,619,l),
(360,714,l),
(160,701,l),
(79,558,l),
(122,522,l)
);
},
{
closed = 1;
nodes = (
(48,114,l),
(9,80,l),
(24,-18,l),
(244,-21,l),
(312,29,l),
(264,102,l),
(97,125,l)
);
}
);
width = 668;
}
);
unicode = 68;
},
{
glyphname = Dcroat;
kernLeft = A;
kernRight = O;
lastChange = "2024-05-09 10:52:54 +0000";
layers = (
{
layerId = m01;
shapes = (
{
pos = (-55,0);
ref = D;
},
{
closed = 1;
nodes = (
(53,325,l),
(73,286,l),
(287,286,l),
(347,372,l),
(345,402,l),
(75,410,l)
);
}
);
width = 663;
}
);
unicode = 272;
},
{
glyphname = Eth;
kernLeft = A;
kernRight = O;
lastChange = "2024-05-09 10:52:58 +0000";
layers = (
{
layerId = m01;
shapes = (
{
ref = D;
},
{
closed = 1;
nodes = (
(89,325,l),
(109,286,l),
(405,316,l),
(465,402,l),
(464,433,l),
(111,410,l)
);
}
);
width = 668;
}
);
metricLeft = D;
metricRight = D;
unicode = 208;
},
{
glyphname = E;
kernLeft = A;
kernRight = E;
lastChange = "2024-05-20 12:53:17 +0000";
layers = (
{
anchors = (
{
name = bottom;
pos = (164,0);
},
{
name = ogonek;
pos = (379,8);
},
{
name = top;
pos = (367,738);
},
{
name = topleft;
pos = (57,680);
}
);
layerId = m01;
shapes = (
{
closed = 1;
nodes = (
(39,0,l),
(477,0,l),
(534,163,l),
(325,111,l),
(235,117,l),
(211,117,l),
(233,222,l),
(282,494,l),
(217,552,l),
(386,644,l),
(155,639,l),
(67,178,l),
(4,25,l)
);
},
{
closed = 1;
nodes = (
(397,296,l),
(545,386,l),
(547,464,l),
(126,381,l),
(63,354,l),
(41,271,l)
);
},
{
closed = 1;
nodes = (
(504,538,l),
(640,613,l),
(643,702,l),
(305,661,l),
(195,532,l)
);
},
{
closed = 1;
nodes = (
(114,700,l),
(98,591,l),
(160,557,l),
(494,628,l),
(406,700,l)
);
},
{
closed = 1;
nodes = (
(325,111,l),
(451,92,l),
(534,163,l),
(511,188,l),
(351,164,l)
);
}
);
width = 581;
}
);
metricLeft = B;
unicode = 69;
},
{
glyphname = Schwa;
kernLeft = O;
kernRight = O;
lastChange = "2024-05-20 09:19:13 +0000";
layers = (
{
layerId = m01;
shapes = (
{
closed = 1;
nodes = (
(455,717,l),
(362,685,l),
(415,538,l),
(443,502,l),
(437,257,l),
(399,163,l),
(267,59,l),
(477,35,l),
(645,538,l),
(619,619,l)
);
},
{
closed = 1;
nodes = (
(416,-20,l),
(477,35,l),
(360,60,l),
(139,101,l),
(89,193,l),
(13,163,l),
(20,129,l),
(75,-10,l)
);
},
{
closed = 1;
nodes = (
(171,649,l),
(87,419,l),
(163,375,l),
(352,564,l),
(275,653,l)
);
},
{
closed = 1;
nodes = (
(171,649,l),
(532,460,l),
(590,498,l),
(559,626,l),
(328,725,l),
(279,702,l)
);
},
{
closed = 1;
nodes = (
(87,419,l),
(75,348,l),
(89,298,l),
(460,312,l),
(499,338,l),
(473,375,l)
);
},
{
closed = 1;
nodes = (
(-8,129,l),
(65,92,l),
(157,85,l),
(215,188,l),
(219,260,l),
(55,236,l)
);
}
);
width = 616;
}
);
metricLeft = O;
metricRight = D;
unicode = 399;
},
{
glyphname = F;
kernLeft = A;
lastChange = "2024-06-10 10:24:45 +0000";
layers = (
{
layerId = m01;
shapes = (
{
closed = 1;
nodes = (
(57,28,l),
(204,48,l),
(287,505,l),
(247,540,l),
(477,547,l),
(632,629,l),
(631,700,l),
(371,700,l),
(297,678,l),
(286,700,l),
(226,700,l),
(118,551,l),
(76,204,l),
(9,40,l)
);
},
{
closed = 1;
nodes = (
(241,0,l),
(255,75,l),
(194,148,l),
(9,40,l),
(36,0,l)
);
},
{
closed = 1;
nodes = (
(52,244,l),
(212,244,l),
(286,244,l),
(354,244,l),
(511,346,l),
(491,428,l),
(106,334,l),
(47,277,l)
);
},
{
closed = 1;
nodes = (
(303,579,l),
(315,639,l),
(226,700,l),
(119,642,l),
(82,551,l),
(155,540,l)
);
}
);
width = 554;
}
);
metricLeft = B;
unicode = 70;
},
{
glyphname = G;
kernLeft = O;
lastChange = "2024-06-10 10:25:51 +0000";
layers = (
{
anchors = (
{
name = bottom;
pos = (270,0);
},
{
name = top;
pos = (437,729);
}
);
layerId = m01;
shapes = (
{
closed = 1;
nodes = (
(374,68,l),
(240,84,l),
(199,211,l),
(194,235,l),
(271,557,l),
(291,603,l),
(245,700,l),
(140,655,l),
(73,499,l),
(9,209,l),
(6,84,l),
(24,43,l)
);
},
{
closed = 1;
nodes = (
(96,0,l),
(178,0,l),
(324,0,l),
(347,30,l),
(434,0,l),
(519,1,l),
(587,233,l),
(561,285,l),
(422,231,l),
(389,123,l),
(351,78,l),
(24,43,l)
);
},
{
closed = 1;
nodes = (
(666,496,l),
(698,672,l),
(579,704,l),
(544,686,l),
(245,700,l),
(227,594,l),
(203,484,l),
(360,608,l),
(485,613,l),
(474,499,l),
(550,487,l)
);
},
{
closed = 1;
nodes = (
(333,281,l),
(347,254,l),
(463,217,l),
(587,233,l),
(597,278,l),
(591,373,l),
(364,373,l)
);
}
);
width = 652;
}
);
metricLeft = O;
unicode = 71;
},
{
glyphname = H;
kernLeft = A;
kernRight = M;
lastChange = "2024-05-09 13:21:08 +0000";
layers = (
{
anchors = (
{
name = top;
pos = (424,694);
}
);
layerId = m01;
shapes = (
{
closed = 1;
nodes = (
(54,1,l),
(196,0,l),
(291,504,l),
(367,693,l),
(165,652,l),
(69,136,l),
(33,28,l)
);
},
{
closed = 1;
nodes = (
(204,275,l),
(254,421,l),
(157,415,l),
(53,383,l),
(25,230,l)
);
},
{
closed = 1;
nodes = (
(488,344,l),
(520,447,l),
(159,397,l),
(146,255,l)
);
},
{
closed = 1;
nodes = (
(276,544,l),
(367,693,l),
(215,713,l),
(109,681,l),
(82,528,l)
);
},
{
closed = 1;
nodes = (
(526,0,l),
(624,525,l),
(660,695,l),
(481,624,l),
(366,63,l),
(349,40,l),
(403,0,l)
);
},
{
closed = 1;
nodes = (
(467,652,l),
(487,556,l),
(609,548,l),
(676,597,l),
(693,696,l),
(496,692,l)
);
}
);
width = 604;
}
);
metricLeft = B;
unicode = 72;
},
{
glyphname = Hbar;
kernLeft = A;
kernRight = M;
lastChange = "2024-05-09 11:26:50 +0000";
layers = (
{
layerId = m01;
shapes = (
{
closed = 1;
nodes = (
(478,271,l),
(510,374,l),
(150,324,l),
(136,182,l)
);
},
{
closed = 1;
nodes = (
(519,9,l),
(608,495,l),
(644,665,l),
(608,680,l),
(481,655,l),
(356,63,l),
(333,13,l),
(374,-28,l)
);
},
{
closed = 1;
nodes = (
(633,454,l),
(664,556,l),
(189,508,l),
(176,366,l)
);
},
{
closed = 1;
nodes = (
(219,372,l),
(268,518,l),
(172,511,l),
(67,479,l),
(39,326,l)
);
},
{
closed = 1;
nodes = (
(323,658,l),
(149,622,l),
(59,136,l),
(-8,-28,l),
(13,-55,l),
(186,0,l),
(274,474,l),
(340,636,l)
);
}
);
width = 601;
}
);
metricLeft = H;
metricRight = H;
unicode = 294;
},
{
glyphname = I;
kernLeft = A;
lastChange = "2024-05-20 13:04:36 +0000";
layers = (
{
anchors = (
{
name = bottom;
pos = (115,0);
},
{
name = ogonek;
pos = (258,8);
},
{
name = top;
pos = (294,726);
},
{
name = topleft;
pos = (96,680);
}
);
layerId = m01;
shapes = (
{
closed = 1;
nodes = (
(108,607,l),
(126,567,l),
(177,561,l),
(238,615,l),
(341,668,l),
(370,700,l),
(188,700,l),
(119,680,l)
);
},
{
closed = 1;
nodes = (
(34,0,l),
(198,14,l),
(299,488,l),
(391,672,l),
(370,700,l),
(160,646,l),
(51,136,l),
(-1,28,l)
);
},
{
closed = 1;
nodes = (
(214,140,l),
(87,146,l),
(47,104,l),
(126,51,l),
(34,0,l),
(214,0,l),
(222,17,l),
(242,90,l)
);
}
);
width = 332;
}
);
unicode = 73;
},
{
glyphname = J;
kernLeft = J;
kernRight = M;
lastChange = "2024-05-09 10:52:54 +0000";
layers = (
{
anchors = (
{
name = bottom;
pos = (231,0);
},
{
name = top;
pos = (552,700);
}
);
layerId = m01;
shapes = (
{
closed = 1;
nodes = (
(444,41,l),
(562,512,l),
(610,558,l),
(638,663,l),
(624,714,l),
(388,621,l),
(339,510,l),
(377,495,l),
(406,470,l),
(362,422,l),
(273,44,l),
(302,-14,l)
);
},
{
closed = 1;
nodes = (
(123,46,l),
(184,177,l),
(176,313,l),
(137,332,l),
(6,192,l),
(10,37,l),
(113,8,l)
);
},
{
closed = 1;
nodes = (
(445,43,l),
(408,191,l),
(36,72,l),
(44,-19,l)
);
}
);
width = 573;
}
);
unicode = 74;
},
{
glyphname = K;
kernLeft = A;
lastChange = "2024-05-09 11:26:50 +0000";
layers = (
{
anchors = (
{
name = bottom;
pos = (308,-2);
},
{
name = top;
pos = (442,695);
}
);
layerId = m01;
shapes = (
{
closed = 1;
nodes = (
(74,-11,l),
(204,-8,l),
(291,449,l),
(355,680,l),
(165,622,l),
(74,136,l),
(46,26,l)
);
},
{
closed = 1;
nodes = (
(497,-11,l),
(520,102,l),
(426,297,l),
(355,323,l),
(205,266,l),
(231,212,l),
(321,191,l),
(368,-11,l)
);
},
{
closed = 1;
nodes = (
(356,258,l),
(381,339,l),
(426,439,l),
(69,338,l),
(14,233,l),
(33,194,l)
);
},
{
closed = 1;
nodes = (
(679,563,l),
(708,671,l),
(603,702,l),
(532,671,l),
(234,310,l),
(325,266,l)
);
},
{
closed = 1;
nodes = (
(118,574,l),
(198,520,l),
(291,449,l),
(355,680,l),
(302,714,l),
(116,689,l)
);
},
{
closed = 1;
nodes = (
(368,-11,l),
(497,-11,l),
(564,-2,l),
(583,98,l),
(477,131,l),
(392,86,l)
);
}
);
width = 634;
}
);
metricLeft = B;
unicode = 75;
},
{
glyphname = L;
kernLeft = A;
kernRight = L;
lastChange = "2024-05-20 09:18:42 +0000";
layers = (
{
anchors = (
{
name = bottom;
pos = (197,0);
},
{
name = center;
pos = (269,340);
},
{
name = top;
pos = (232,699);
},
{
name = topright;
pos = (566,680);
}
);
layerId = m01;
shapes = (
{
closed = 1;
nodes = (
(18,0,l),
(278,0,l),
(436,66,l),
(443,190,l),
(189,137,l),
(271,518,l),
(361,662,l),
(343,718,l),
(136,622,l),
(57,191,l),
(-6,35,l)
);
},
{
closed = 1;
nodes = (
(110,684,l),
(96,609,l),
(178,559,l),
(339,641,l),
(340,730,l)
);
},
{
closed = 1;
nodes = (
(448,239,l),
(355,205,l),
(330,169,l),
(362,114,l),
(436,66,l),
(474,224,l)
);
}
);
width = 493;
}
);
metricLeft = B;
unicode = 76;
},
{
glyphname = Lslash;
kernLeft = A;
kernRight = L;
lastChange = "2024-05-20 11:04:38 +0000";
layers = (
{
layerId = m01;
shapes = (
{
ref = L;
},
{
closed = 1;
nodes = (
(39,313,l),
(59,274,l),
(280,296,l),
(341,383,l),
(339,413,l),
(61,398,l)
);
}
);
width = 493;
}
);
metricLeft = L;
metricRight = L;
unicode = 321;
},
{
glyphname = M;
kernLeft = A;
kernRight = A;
lastChange = "2024-05-09 12:51:26 +0000";
layers = (
{
layerId = m01;
shapes = (
{
closed = 1;
nodes = (
(441,23,l),
(646,546,l),
(890,648,l),
(743,717,l),
(574,661,l),
(308,0,l)
);
},
{
closed = 1;
nodes = (
(157,0,l),
(191,65,l),
(215,178,l),
(46,143,l),
(-16,39,l),
(1,0,l)
);
},
{
closed = 1;
nodes = (
(194,42,l),
(254,481,l),
(271,570,l),
(386,668,l),
(352,720,l),
(134,630,l),
(67,217,l),
(25,81,l),
(51,33,l)
);
},
{
closed = 1;
nodes = (
(722,0,l),
(818,493,l),
(890,648,l),
(697,616,l),
(572,129,l),
(531,74,l),
(574,0,l)
);
},
{
closed = 1;
nodes = (
(81,534,l),
(135,474,l),
(142,421,l),
(308,661,l),
(352,720,l),
(105,660,l)
);
},
{
closed = 1;
nodes = (
(412,702,l),
(311,668,l),
(265,562,l),
(303,551,l),
(308,0,l),
(437,186,l),
(428,681,l)
);
}
);
width = 808;
}
);
metricLeft = B;
metricRight = H;
unicode = 77;
},
{
glyphname = N;
kernLeft = A;
kernRight = N;
lastChange = "2024-05-09 16:00:37 +0000";
layers = (
{
anchors = (
{
name = bottom;
pos = (302,0);
},
{
name = top;
pos = (514,712);
}
);
layerId = m01;
shapes = (
{
closed = 1;
nodes = (
(495,170,l),
(349,717,l),
(281,558,l),
(412,-20,l)
);
},
{
closed = 1;
nodes = (
(60,0,l),
(224,4,l),
(315,464,l),
(303,672,l),
(163,622,l),
(75,151,l),
(26,35,l)
);
},
{
closed = 1;
nodes = (
(119,671,l),
(105,596,l),
(187,546,l),
(348,628,l),
(349,717,l)
);
},
{
closed = 1;
nodes = (
(762,714,l),
(591,653,l),
(505,194,l),
(412,-20,l),
(603,0,l),
(716,515,l),
(788,664,l)
);
}
);
width = 702;
}
);
metricRight = H;
unicode = 78;
},
{
glyphname = O;
kernLeft = O;
kernRight = O;
lastChange = "2024-07-22 11:53:15 +0000";
layers = (
{
anchors = (
{
name = bottom;
pos = (243,0);
},
{
name = center;
pos = (309,311);
},
{
name = ogonek;
pos = (502,9);
},
{
name = top;
pos = (439,735);
},
{
name = topleft;
pos = (72,622);
},
{
name = topright;
pos = (678,622);
}
);
layerId = m01;
shapes = (
{
closed = 1;
nodes = (
(142,0,l),
(232,108,l),
(177,174,l),
(266,589,l),
(337,612,l),
(206,648,l),
(154,631,l),
(89,583,l),
(70,495,l),
(-3,151,l),
(103,0,l)
);
},
{
closed = 1;
nodes = (
(556,140,l),
(645,558,l),
(651,607,l),
(594,699,l),
(507,683,l),
(424,614,l),
(484,541,l),
(422,254,l),
(414,213,l),
(397,132,l),
(338,132,l),
(105,133,l),
(120,0,l),
(274,0,l),
(356,0,l)
);
},
{
closed = 1;
nodes = (
(342,576,l),
(562,576,l),
(594,699,l),
(397,699,l),
(330,676,l),
(280,699,l),
(96,611,l),
(89,583,l),
(188,570,l)
);
}
);
width = 603;
}
);
metricLeft = C;
unicode = 79;
},
{
glyphname = Oslash;
kernLeft = O;
kernRight = O;
lastChange = "2024-05-09 11:26:50 +0000";
layers = (
{
layerId = m01;
shapes = (
{
closed = 1;
nodes = (
(191,520,l),
(380,680,l),
(349,711,l),
(97,622,l),
(6,136,l),
(-5,65,l),
(165,0,l)
);
},
{
closed = 1;
nodes = (
(478,-19,l),
(346,82,l),
(12,90,l),
(44,-65,l)
);
},
{
closed = 1;
nodes = (
(624,569,l),
(525,577,l),
(335,48,l),
(478,-19,l)
);
},
{
closed = 1;
nodes = (
(592,544,l),
(624,569,l),
(559,686,l),
(309,678,l),
(130,490,l)
);
},
{
closed = 1;
nodes = (
(106,-107,l),
(574,606,l),
(613,654,l),
(580,706,l),
(531,715,l),
(476,634,l),
(-17,-91,l),
(7,-146,l)
);
}
);
width = 579;
}
);
metricLeft = O;
metricRight = O;
unicode = 216;
},
{
glyphname = OE;
kernLeft = O;
kernRight = E;
lastChange = "2024-05-20 13:03:13 +0000";
layers = (
{
anchors = (
{
name = bottom;
pos = (503,0);
},
{
name = ogonek;
pos = (718,8);
},
{
name = top;
pos = (706,738);
},
{
name = topleft;
pos = (396,680);
}
);
layerId = m01;
shapes = (
{
closed = 1;
nodes = (
(113,119,l),
(194,186,l),
(264,545,l),
(344,612,l),
(213,648,l),
(161,631,l),
(91,596,l),
(77,495,l),
(-3,41,l),
(17,15,l)
);
},
{
closed = 1;
nodes = (
(486,41,l),
(652,558,l),
(641,664,l),
(601,699,l),
(514,683,l),
(473,618,l),
(480,541,l),
(379,129,l),
(345,132,l),
(112,133,l),
(21,25,l),
(74,-1,l),
(364,0,l)
);
},
{
closed = 1;
nodes = (
(209,576,l),
(580,598,l),
(601,699,l),
(404,699,l),
(324,680,l),
(258,699,l),
(163,683,l),
(91,596,l),
(111,561,l)
);
},
{
closed = 1;
nodes = (
(446,0,l),
(816,0,l),
(873,163,l),
(664,111,l),
(574,117,l),
(534,120,l),
(556,225,l),
(621,494,l),
(556,552,l),
(725,644,l),
(494,639,l),
(406,178,l),
(413,65,l)
);
},
{
closed = 1;
nodes = (
(736,296,l),
(884,386,l),
(886,464,l),
(465,381,l),
(475,359,l),
(453,276,l)
);
},
{
closed = 1;
nodes = (
(843,538,l),
(979,613,l),
(982,702,l),
(644,661,l),
(534,532,l)
);
},
{
closed = 1;
nodes = (
(453,700,l),
(437,591,l),
(499,557,l),
(833,628,l),
(745,700,l)
);
},
{
closed = 1;
nodes = (
(664,111,l),
(790,92,l),
(873,163,l),
(850,188,l),
(690,164,l)
);
}
);
width = 920;
}
);
metricLeft = O;
metricRight = E;
unicode = 338;
},
{
glyphname = P;
kernLeft = A;
kernRight = P;
lastChange = "2024-05-20 12:54:38 +0000";
layers = (
{
layerId = m01;
shapes = (
{
closed = 1;
nodes = (
(4,17,l),
(194,35,l),
(286,520,l),
(208,534,l),
(450,647,l),
(406,700,l),
(172,700,l),
(66,198,l),
(-2,41,l)
);
},
{
closed = 1;
nodes = (
(529,258,l),
(474,394,l),
(276,310,l),
(213,302,l),
(172,296,l),
(180,211,l)
);
},
{
closed = 1;
nodes = (
(667,583,l),
(530,597,l),
(416,341,l),
(529,258,l)
);
},
{
closed = 1;
nodes = (
(624,578,l),
(667,583,l),
(619,700,l),
(535,700,l),
(340,651,l),
(186,532,l)
);
},
{
closed = 1;
nodes = (
(238,0,l),
(259,98,l),
(184,148,l),
(4,17,l),
(41,0,l)
);
},
{
closed = 1;
nodes = (
(140,546,l),
(190,546,l),
(219,651,l),
(172,700,l),
(108,675,l),
(95,567,l)
);
}
);
width = 610;
}
);
metricLeft = B;
unicode = 80;
},
{
glyphname = Thorn;
kernLeft = A;
lastChange = "2024-06-10 10:30:44 +0000";
layers = (
{
layerId = m01;
shapes = (
{
closed = 1;
nodes = (
(108,607,l),
(126,567,l),
(177,561,l),
(238,615,l),
(341,668,l),
(376,703,l),
(188,704,l),
(119,680,l)
);
},
{
closed = 1;
nodes = (
(22,-47,l),
(187,-16,l),
(287,476,l),
(384,671,l),
(376,703,l),
(160,646,l),
(47,117,l),
(-13,-19,l)
);
},
{
closed = 1;
nodes = (
(210,121,l),
(83,127,l),
(43,85,l),
(122,32,l),
(161,-22,l),
(214,-16,l),
(249,24,l),
(268,97,l)
);
},
{
closed = 1;
nodes = (
(328,144,l),
(453,144,l),
(416,268,l),
(171,259,l),
(181,213,l)
);
},
{
closed = 1;
nodes = (
(608,457,l),
(471,470,l),
(399,308,l),
(322,227,l),
(453,144,l)
);
},
{
closed = 1;
nodes = (
(566,451,l),
(608,457,l),
(568,558,l),
(318,549,l),
(246,422,l)
);
}
);
width = 571;
}
);
metricLeft = I;
metricRight = A;
unicode = 222;
},
{
glyphname = Q;
kernLeft = O;
kernRight = O;
lastChange = "2024-07-22 11:55:39 +0000";
layers = (
{
layerId = m01;
shapes = (
{
closed = 1;
nodes = (
(469,-33,l),
(372,128,l),
(367,236,l),
(250,266,l),
(206,226,l),
(329,-61,l),
(422,-86,l)
);
},
{
closed = 1;
nodes = (
(142,0,l),
(232,108,l),
(177,174,l),
(266,589,l),
(337,612,l),
(206,648,l),
(154,631,l),
(89,583,l),
(70,495,l),
(-3,151,l),
(103,0,l)
);
},
{
closed = 1;
nodes = (
(556,140,l),
(645,558,l),
(651,607,l),
(594,699,l),
(507,683,l),
(424,614,l),
(484,541,l),
(422,254,l),
(414,213,l),
(397,132,l),
(338,132,l),
(105,133,l),
(120,0,l),
(274,0,l),
(356,0,l)
);
},
{
closed = 1;
nodes = (
(342,576,l),
(562,576,l),
(594,699,l),
(397,699,l),
(330,676,l),
(280,699,l),
(96,611,l),
(89,583,l),
(188,570,l)
);
}
);
width = 603;
}
);
metricLeft = O;
metricRight = O;
unicode = 81;
},
{
glyphname = R;
kernLeft = A;
lastChange = "2024-05-09 13:22:10 +0000";
layers = (
{
anchors = (
{
name = bottom;
pos = (265,0);
},
{
name = top;
pos = (447,700);
}
);
layerId = m01;
shapes = (
{
closed = 1;
nodes = (
(72,0,l),
(227,-4,l),
(315,466,l),
(420,711,l),
(168,622,l),
(78,136,l),
(48,63,l)
);
},
{
closed = 1;
nodes = (
(549,-140,l),
(547,-10,l),
(443,190,l),
(365,212,l),
(402,245,l),
(272,196,l),
(450,-169,l)
);
},
{
closed = 1;
nodes = (
(542,242,l),
(571,322,l),
(227,245,l),
(161,144,l)
);
},
{
closed = 1;
nodes = (
(707,592,l),
(651,652,l),
(554,618,l),
(440,296,l),
(542,242,l)
);
},
{
closed = 1;
nodes = (
(673,607,l),
(707,592,l),
(681,719,l),
(380,678,l),
(288,518,l)
);
},
{
closed = 1;
nodes = (
(100,514,l),
(181,460,l),
(270,444,l),
(436,684,l),
(420,711,l),
(98,629,l)
);
},
{
closed = 1;
nodes = (
(450,-169,l),
(551,-160,l),
(598,-130,l),
(612,-52,l),
(603,-36,l),
(509,-36,l)
);
}
);
width = 636;
}
);
metricLeft = B;
unicode = 82;
},
{
glyphname = S;
lastChange = "2024-06-10 10:29:11 +0000";
layers = (
{
anchors = (
{
name = bottom;
pos = (274,0);
},
{
name = top;
pos = (429,714);
}
);
layerId = m01;
shapes = (
{
closed = 1;
nodes = (
(205,377,l),
(252,417,l),
(291,667,l),
(274,673,l),
(143,625,l),
(51,335,l),
(176,331,l),
(239,331,l)
);
},
{
closed = 1;
nodes = (
(457,49,l),
(359,100,l),
(182,129,l),
(179,157,l),
(132,172,l),
(35,129,l),
(7,1,l),
(397,0,l)
);
},
{
closed = 1;
nodes = (
(457,49,l),
(542,366,l),
(397,335,l),
(381,261,l),
(350,219,l),
(301,56,l)
);
},
{
closed = 1;
nodes = (
(542,366,l),
(474,430,l),
(97,355,l),
(80,291,l),
(381,261,l),
(441,286,l)
);
},
{
closed = 1;
nodes = (
(549,493,l),
(648,649,l),
(554,700,l),
(293,698,l),
(246,700,l),
(195,622,l),
(246,561,l),
(425,590,l),
(437,456,l)
);
}
);
width = 582;
}
);
unicode = 83;
},
{
glyphname = Germandbls;
kernLeft = A;
lastChange = "2024-06-10 10:28:32 +0000";
layers = (
{
layerId = m01;
shapes = (
{
closed = 1;
nodes = (
(250,0,l),
(261,64,l),
(221,113,l),
(303,464,l),
(230,580,l),
(217,671,l),
(159,609,l),
(56,105,l),
(20,46,l),
(34,0,l)
);
},
{
closed = 1;
nodes = (
(281,395,l),
(287,463,l),
(228,506,l),
(95,471,l),
(58,441,l),
(93,342,l)
);
},
{
closed = 1;
nodes = (
(512,0,l),
(586,115,l),
(654,287,l),
(557,385,l),
(459,436,l),
(368,376,l),
(358,280,l),
(403,285,l),
(537,301,l),
(541,265,l),
(423,130,l),
(357,179,l),
(295,198,l),
(259,123,l),
(339,0,l)
);
},
{
closed = 1;
nodes = (
(542,434,l),
(611,478,l),
(654,626,l),
(529,714,l),
(354,690,l),
(357,585,l),
(474,570,l),
(498,567,l),
(531,554,l),
(449,493,l),
(412,446,l),
(368,376,l)
);
},
{
closed = 1;
nodes = (
(529,714,l),
(287,726,l),
(196,699,l),
(159,609,l),
(222,549,l),
(474,570,l)
);
}
);
width = 656;
}
);
metricLeft = E;
metricRight = B;
unicode = 7838;
},
{
glyphname = T;
kernLeft = T;
kernRight = T;
lastChange = "2024-05-11 09:07:16 +0000";
layers = (
{
anchors = (
{
name = bottom;
pos = (271,22);
},
{
name = center;
pos = (300,340);
},
{
name = top;
pos = (376,697);
}
);
layerId = m01;
shapes = (
{
closed = 1;
nodes = (
(350,0,l),
(373,56,l),
(383,107,l),
(356,134,l),
(429,502,l),
(403,546,l),
(447,602,l),
(272,573,l),
(260,508,l),
(193,142,l),
(150,24,l),
(195,0,l)
);
},
{
closed = 1;
nodes = (
(343,544,l),
(605,562,l),
(669,630,l),
(640,700,l),
(124,649,l),
(67,550,l),
(105,520,l)
);
},
{
closed = 1;
nodes = (
(626,635,l),
(640,700,l),
(195,700,l),
(146,621,l)
);
},
{
closed = 1;
nodes = (
(126,90,l),
(127,0,l),
(195,0,l),
(223,0,l),
(262,153,l),
(154,118,l)
);
}
);
width = 590;
}
);
unicode = 84;
},
{
glyphname = U;
kernRight = N;
lastChange = "2024-05-09 16:02:36 +0000";
layers = (
{
anchors = (
{
name = bottom;
pos = (284,0);
},
{
name = ogonek;
pos = (535,8);
},
{
name = top;
pos = (457,730);
},
{
name = topright;
pos = (724,680);
}
);
layerId = m01;
shapes = (
{
closed = 1;
nodes = (
(563,127,l),
(650,510,l),
(708,655,l),
(679,697,l),
(514,646,l),
(423,166,l),
(409,99,l),
(236,138,l),
(243,167,l),
(319,551,l),
(356,642,l),
(337,706,l),
(147,622,l),
(68,219,l),
(46,113,l),
(86,82,l),
(96,0,l),
(438,0,l)
);
},
{
closed = 1;
nodes = (
(148,494,l),
(266,554,l),
(337,706,l),
(196,683,l),
(112,650,l),
(86,571,l)
);
}
);
width = 624;
}
);
metricLeft = B;
metricRight = H;
unicode = 85;
},
{
glyphname = V;
kernLeft = V;
kernRight = V;
lastChange = "2024-05-09 10:52:55 +0000";
layers = (
{
layerId = m01;
shapes = (
{
closed = 1;
nodes = (
(752,622,l),
(705,706,l),
(654,706,l),
(488,622,l),
(466,520,l),
(516,439,l),
(350,201,l),
(240,274,l),
(296,-47,l)
);
},
{
closed = 1;
nodes = (
(314,87,l),
(245,546,l),
(277,631,l),
(257,665,l),
(78,574,l),
(123,78,l),
(296,-47,l)
);
},
{
closed = 1;
nodes = (
(295,561,l),
(345,634,l),
(267,711,l),
(78,574,l),
(123,514,l)
);
}
);
width = 678;
}
);
unicode = 86;
},
{
glyphname = W;
kernLeft = V;
kernRight = V;
lastChange = "2024-05-20 09:19:14 +0000";
layers = (
{
anchors = (
{
name = bottom;
pos = (405,0);
},
{
name = top;
pos = (557,714);
}
);
layerId = m01;
shapes = (
{
closed = 1;
nodes = (
(982,599,l),
(935,702,l),
(807,700,l),
(758,632,l),
(780,561,l),
(812,573,l),
(764,488,l),
(582,127,l),
(510,108,l),
(651,-9,l)
);
},
{
closed = 1;
nodes = (
(560,362,l),
(514,447,l),
(501,480,l),
(453,480,l),
(461,304,l),
(305,139,l),
(182,-6,l),
(339,-6,l)
);
},
{
closed = 1;
nodes = (
(651,-9,l),
(590,97,l),
(619,277,l),
(549,568,l),
(452,552,l),
(404,470,l),
(483,108,l),
(515,-9,l)
);
},
{
closed = 1;
nodes = (
(314,87,l),
(245,546,l),
(277,631,l),
(257,665,l),
(78,574,l),
(123,78,l),
(182,-6,l)
);
},
{
closed = 1;
nodes = (
(295,561,l),
(345,634,l),
(267,711,l),
(78,574,l),
(123,514,l)
);
}
);
width = 913;
}
);
metricLeft = V;
metricRight = V;
unicode = 87;
},
{
glyphname = X;
lastChange = "2024-07-22 11:57:59 +0000";
layers = (
{
layerId = m01;
shapes = (
{
closed = 1;
nodes = (
(514,0,l),
(564,67,l),
(522,182,l),
(312,619,l),
(325,678,l),
(294,700,l),
(181,700,l),
(123,668,l),
(101,576,l),
(370,58,l),
(390,0,l),
(464,0,l)
);
},
{
closed = 1;
nodes = (
(156,0,l),
(212,120,l),
(199,192,l),
(281,264,l),
(264,358,l),
(159,256,l),
(55,165,l),
(-15,50,l),
(7,27,l),
(32,0,l)
);
},
{
closed = 1;
nodes = (
(377,311,l),
(506,418,l),
(631,521,l),
(691,665,l),
(673,700,l),
(564,700,l),
(474,634,l),
(466,587,l),
(491,551,l),
(350,403,l)
);
}
);
width = 634;
}
);
metricLeft = I;
metricRight = I;
unicode = 88;
},
{
glyphname = Y;
kernLeft = V;
kernRight = Y;
lastChange = "2024-05-20 09:19:14 +0000";
layers = (
{
anchors = (
{
name = bottom;
pos = (227,0);
},
{
name = top;
pos = (408,714);
},
{
name = topleft;
pos = (100,680);
}
);
layerId = m01;
shapes = (
{
closed = 1;
nodes = (
(356,238,l),
(639,627,l),
(631,700,l),
(536,700,l),
(449,673,l),
(234,253,l)
);
},
{
closed = 1;
nodes = (
(150,0,l),
(334,0,l),
(325,160,l),
(421,398,l),
(185,296,l),
(188,177,l),
(120,30,l)
);
},
{
closed = 1;
nodes = (
(270,263,l),
(245,654,l),
(267,712,l),
(74,558,l),
(130,262,l)
);
},
{
closed = 1;
nodes = (
(282,582,l),
(325,628,l),
(344,717,l),
(126,704,l),
(74,558,l)
);
}
);
width = 569;
}
);
metricLeft = W;
unicode = 89;
},
{
glyphname = Z;
lastChange = "2024-06-10 10:30:33 +0000";
layers = (
{
anchors = (
{
name = bottom;
pos = (256,0);
},
{
name = center;
pos = (328,340);
},
{
name = top;
pos = (401,714);
}
);
layerId = m01;
shapes = (
{
closed = 1;
nodes = (
(162,133,l),
(289,181,l),
(651,539,l),
(636,689,l),
(458,571,l),
(474,541,l),
(4,139,l),
(6,52,l),
(143,31,l)
);
},
{
closed = 1;
nodes = (
(456,0,l),
(499,65,l),
(97,126,l),
(6,52,l),
(11,0,l)
);
},
{
closed = 1;
nodes = (
(523,25,l),
(583,219,l),
(534,227,l),
(442,245,l),
(358,156,l),
(353,11,l)
);
},
{
closed = 1;
nodes = (
(265,526,l),
(295,586,l),
(339,647,l),
(544,652,l),
(665,695,l),
(251,709,l),
(212,645,l),
(339,647,l),
(362,680,l),
(125,650,l),
(90,534,l),
(89,472,l)
);
},
{
closed = 1;
nodes = (
(671,656,l),
(665,695,l),
(362,680,l),
(230,610,l),
(651,539,l)
);
}
);
width = 620;
}
);
unicode = 90;
},
{
glyphname = AE.001;
kernLeft = A;
kernRight = E;
lastChange = "2024-05-09 15:23:06 +0000";
layers = (
{
anchors = (
{
name = top;
pos = (597,714);
}
);
layerId = m01;
shapes = (
{
closed = 1;
nodes = (
(171,-5,l),
(259,469,l),
(478,660,l),
(372,714,l),
(155,622,l),
(65,136,l),
(5,18,l),
(44,-70,l)
);
},
{
closed = 1;
nodes = (
(341,192,l),
(417,282,l),
(419,370,l),
(62,270,l),
(0,166,l),
(19,126,l)
);
},
{
closed = 1;
nodes = (
(677,662,l),
(649,696,l),
(642,706,l),
(377,678,l),
(235,492,l),
(589,568,l),
(669,673,l)
);
},
{
closed = 1;
nodes = (
(669,673,l),
(642,706,l),
(649,696,l),
(474,641,l),
(384,167,l),
(363,18,l),
(411,-7,l),
(526,24,l),
(616,510,l),
(677,662,l)
);
},
{
closed = 1;
nodes = (
(344,-24,l),
(648,-24,l),
(820,130,l),
(816,186,l),
(541,119,l),
(618,519,l),
(776,714,l),
(729,752,l),
(476,663,l),
(385,177,l),
(316,8,l)
);
},
{
closed = 1;
nodes = (
(668,274,l),
(838,386,l),
(841,475,l),
(429,375,l),
(467,331,l),
(467,290,l)
);
},
{
closed = 1;
nodes = (
(799,548,l),
(959,670,l),
(962,758,l),
(551,658,l),
(466,548,l)
);
},
{
closed = 1;
nodes = (
(448,658,l),
(432,549,l),
(475,515,l),
(524,521,l),
(770,722,l)
);
}
);
width = 888;
}
);
metricLeft = A;
metricRight = E;
},
{
glyphname = C.001;
kernLeft = O;
lastChange = "2024-05-09 11:25:53 +0000";
layers = (
{
anchors = (
{
name = bottom;
pos = (218,0);
},
{
name = top;
pos = (370,714);
}
);
layerId = m01;
shapes = (
{
closed = 1;
nodes = (
(58,441,l),
(36,35,l),
(244,35,l),
(229,399,l),
(311,538,l),
(440,662,l),
(361,694,l),
(155,596,l)
);
},
{
closed = 1;
nodes = (
(498,125,l),
(492,193,l),
(401,161,l),
(163,60,l),
(36,35,l),
(73,-20,l),
(294,-30,l)
);
},
{
closed = 1;
nodes = (
(387,564,l),
(503,494,l),
(598,538,l),
(617,626,l),
(515,630,l)
);
},
{
closed = 1;
nodes = (
(302,114,l),
(376,78,l),
(468,70,l),
(526,174,l),
(529,246,l),
(365,222,l)
);
},
{
closed = 1;
nodes = (
(492,702,l),
(219,603,l),
(121,498,l),
(163,460,l),
(617,626,l),
(531,679,l)
);
}
);
width = 560;
}
);
},
{
glyphname = E.001;
kernLeft = A;
kernRight = E;
lastChange = "2024-05-20 10:37:50 +0000";
layers = (
{
anchors = (
{
name = bottom;
pos = (188,0);
},
{
name = ogonek;
pos = (403,8);
},
{
name = top;
pos = (391,738);
},
{
name = topleft;
pos = (81,680);
}
);
layerId = m01;
shapes = (
{
closed = 1;
nodes = (
(39,0,l),
(422,0,l),
(539,154,l),
(333,118,l),
(243,124,l),
(210,124,l),
(216,146,l),
(290,494,l),
(462,690,l),
(415,728,l),
(163,639,l),
(81,201,l),
(12,32,l)
);
},
{
closed = 1;
nodes = (
(405,296,l),
(553,386,l),
(555,474,l),
(121,375,l),
(71,354,l),
(37,297,l)
);
},
{
closed = 1;
nodes = (
(512,538,l),
(669,645,l),
(672,734,l),
(237,634,l),
(156,539,l)
);
},
{
closed = 1;
nodes = (
(99,634,l),
(84,525,l),
(127,491,l),
(176,497,l),
(422,698,l)
);
},
{
closed = 1;
nodes = (
(333,118,l),
(459,99,l),
(539,154,l),
(546,222,l),
(386,198,l)
);
}
);
width = 603;
}
);
metricLeft = B;
},
{
glyphname = F.001;
kernLeft = A;
lastChange = "2024-05-09 11:38:26 +0000";
layers = (
{
layerId = m01;
shapes = (
{
closed = 1;
nodes = (
(14,27,l),
(200,27,l),
(290,507,l),
(514,683,l),
(382,722,l),
(160,654,l),
(71,182,l),
(11,39,l)
);
},
{
closed = 1;
nodes = (
(258,2,l),
(272,77,l),
(190,127,l),
(39,87,l),
(38,-1,l)
);
},
{
closed = 1;
nodes = (
(53,244,l),
(355,244,l),
(511,346,l),
(514,434,l),
(107,334,l),
(48,277,l)
);
},
{
closed = 1;
nodes = (
(473,530,l),
(632,629,l),
(635,718,l),
(167,619,l),
(147,520,l)
);
},
{
closed = 1;
nodes = (
(299,562,l),
(316,639,l),
(211,669,l),
(119,642,l),
(82,551,l),
(156,540,l)
);
}
);
width = 554;
}
);
metricLeft = B;
},
{
glyphname = O.001;
kernLeft = O;
kernRight = O;
lastChange = "2024-05-11 09:11:59 +0000";
layers = (
{
anchors = (
{
name = bottom;
pos = (188,0);
},
{
name = center;
pos = (254,311);
},
{
name = ogonek;
pos = (447,9);
},
{
name = top;
pos = (384,735);
},
{
name = topleft;
pos = (17,622);
},
{
name = topright;
pos = (623,622);
}
);
layerId = m01;
shapes = (
{
closed = 1;
nodes = (
(204,518,l),
(368,680,l),
(337,711,l),
(102,626,l),
(4,185,l),
(-7,114,l),
(188,47,l)
);
},
{
closed = 1;
nodes = (
(444,0,l),
(313,101,l),
(10,138,l),
(42,-16,l)
);
},
{
closed = 1;
nodes = (
(612,569,l),
(513,577,l),
(301,67,l),
(444,0,l)
);
},
{
closed = 1;
nodes = (
(580,544,l),
(612,569,l),
(565,699,l),
(297,678,l),
(118,490,l)
);
}
);
width = 567;
}
);
metricLeft = C;
},
{
glyphname = OE.001;
kernLeft = O;
lastChange = "2024-05-20 13:01:55 +0000";
layers = (
{
anchors = (
{
name = bottom;
pos = (200,0);
},
{
name = center;
pos = (266,311);
},
{
name = ogonek;
pos = (459,9);
},
{
name = top;
pos = (522,742);
},
{
name = topleft;
pos = (29,622);
},
{
name = topright;
pos = (635,622);
}
);
layerId = m01;
shapes = (
{
closed = 1;
nodes = (
(191,520,l),
(380,680,l),
(349,711,l),
(97,622,l),
(6,136,l),
(-5,65,l),
(165,0,l)
);
},
{
closed = 1;
nodes = (
(478,-19,l),
(346,82,l),
(12,90,l),
(44,-65,l)
);
},
{
closed = 1;
nodes = (
(624,569,l),
(525,577,l),
(335,48,l),
(478,-19,l)
);
},
{
closed = 1;
nodes = (
(592,544,l),
(624,569,l),
(586,670,l),
(309,678,l),
(130,490,l)
);
},
{
closed = 1;
nodes = (
(361,-24,l),
(666,-24,l),
(837,130,l),
(823,177,l),
(548,110,l),
(635,519,l),
(793,714,l),
(746,752,l),
(494,663,l),
(402,177,l),
(334,8,l)
);
},
{
closed = 1;
nodes = (
(686,274,l),
(855,386,l),
(858,475,l),
(447,375,l),
(481,364,l),
(426,283,l)
);
},
{
closed = 1;
nodes = (
(817,548,l),
(976,670,l),
(979,758,l),
(569,658,l),
(484,548,l)
);
},
{
closed = 1;
nodes = (
(430,658,l),
(414,549,l),
(458,515,l),
(507,521,l),
(752,722,l)
);
}
);
width = 905;
}
);
metricLeft = O;
metricRight = E;
},
{
glyphname = P.001;
kernLeft = A;
kernRight = P;
lastChange = "2024-05-11 08:59:53 +0000";
layers = (
{
layerId = m01;
shapes = (
{
closed = 1;
nodes = (
(19,0,l),
(57,0,l),
(206,35,l),
(298,520,l),
(462,647,l),
(408,711,l),
(155,622,l),
(74,181,l),
(13,84,l)
);
},
{
closed = 1;
nodes = (
(541,258,l),
(486,394,l),
(165,249,l),
(175,202,l)
);
},
{
closed = 1;
nodes = (
(679,583,l),
(542,597,l),
(428,341,l),
(541,258,l)
);
},
{
closed = 1;
nodes = (
(636,578,l),
(679,583,l),
(653,710,l),
(352,651,l),
(267,498,l)
);
},
{
closed = 1;
nodes = (
(257,0,l),
(272,75,l),
(195,147,l),
(34,66,l),
(57,0,l)
);
},
{
closed = 1;
nodes = (
(123,468,l),
(308,504,l),
(322,579,l),
(155,622,l),
(92,597,l),
(79,489,l)
);
}
);
width = 622;
}
);
metricLeft = B;
},
{
glyphname = P.002;
kernLeft = A;
kernRight = P;
lastChange = "2024-05-11 09:14:12 +0000";
layers = (
{
layerId = m01;
shapes = (
{
closed = 1;
nodes = (
(38,2,l),
(57,0,l),
(206,35,l),
(295,543,l),
(636,578,l),
(679,583,l),
(563,700,l),
(155,664,l),
(70,160,l),
(26,69,l)
);
},
{
closed = 1;
nodes = (
(541,258,l),
(486,394,l),
(165,249,l),
(175,202,l)
);
},
{
closed = 1;
nodes = (
(679,583,l),
(542,597,l),
(428,341,l),
(541,258,l)
);
},
{
closed = 1;
nodes = (
(257,0,l),
(272,75,l),
(195,147,l),
(92,75,l),
(57,0,l)
);
},
{
closed = 1;
nodes = (
(138,502,l),
(180,484,l),
(322,621,l),
(155,664,l),
(105,659,l),
(79,531,l)
);
}
);
width = 622;
}
);
metricLeft = B;
},
{
glyphname = X.001;
lastChange = "2024-05-20 09:19:14 +0000";
layers = (
{
layerId = m01;
shapes = (
{
closed = 1;
nodes = (
(482,-8,l),
(498,114,l),
(457,182,l),
(325,574,l),
(306,686,l),
(243,723,l),
(123,637,l),
(98,576,l),
(329,0,l),
(386,-35,l)
);
},
{
closed = 1;
nodes = (
(206,21,l),
(204,159,l),
(268,310,l),
(129,289,l),
(55,165,l),
(-15,50,l),
(-5,16,l),
(37,-12,l)
);
},
{
closed = 1;
nodes = (
(325,574,l),
(305,685,l),
(243,723,l),
(161,683,l),
(162,630,l),
(215,540,l)
);
},
{
closed = 1;
nodes = (
(497,397,l),
(571,521,l),
(631,665,l),
(621,698,l),
(579,726,l),
(414,634,l),
(346,373,l)
);
}
);
width = 574;
}
);
metricLeft = I;
metricRight = I;
},
{
glyphname = A.ss01;
kernLeft = altA1_l;
kernRight = altA1_r;
lastChange = "2024-05-09 10:52:55 +0000";
layers = (
{
anchors = (
{
name = bottom;
pos = (543,-26);
},
{
name = ogonek;
pos = (628,10);
},
{
name = top;
pos = (484,737);
}
);
layerId = m01;
shapes = (
{
closed = 1;
nodes = (
(141,0,l),
(164,28,l),
(175,115,l),
(374,430,l),
(419,597,l),
(312,605,l),
(-50,-14,l)
);
},
{
closed = 1;
nodes = (
(710,45,l),
(677,117,l),
(571,681,l),
(439,715,l),
(378,681,l),
(501,99,l),
(468,21,l),
(487,-10,l),
(675,-8,l)
);
},
{
closed = 1;
nodes = (
(-42,64,l),
(-50,-14,l),
(105,39,l),
(124,126,l),
(77,163,l)
);
},
{
closed = 1;
nodes = (
(423,211,l),
(511,296,l),
(508,354,l),
(30,222,l),
(-8,135,l),
(24,124,l)
);
}
);
width = 756;
}
);
},
{
glyphname = K.ss01;
lastChange = "2024-05-20 09:19:14 +0000";
layers = (
{
layerId = m01;
shapes = (
{
closed = 1;
nodes = (
(74,-11,l),
(204,-8,l),
(291,449,l),
(355,680,l),
(165,622,l),
(74,136,l),
(46,26,l)
);
},
{
closed = 1;
nodes = (
(556,-144,l),
(579,-31,l),
(426,297,l),
(355,323,l),
(205,266,l),
(231,212,l),
(321,191,l),
(427,-144,l)
);
},
{
closed = 1;
nodes = (
(356,258,l),
(381,339,l),
(426,439,l),
(69,338,l),
(14,233,l),
(33,194,l)
);
},
{
closed = 1;
nodes = (
(118,574,l),
(198,520,l),
(291,449,l),
(355,680,l),
(302,714,l),
(116,689,l)
);
},
{
closed = 1;
nodes = (
(427,-144,l),
(556,-144,l),
(623,-135,l),
(642,-35,l),
(536,-2,l),
(451,-47,l)
);
},
{
closed = 1;
nodes = (
(679,563,l),
(708,671,l),
(603,702,l),
(532,671,l),
(234,310,l),
(325,266,l)
);
}
);
width = 720;
}
);
metricLeft = K;
metricRight = K;
},
{
glyphname = Q.ss01;
kernLeft = O;
kernRight = O;
lastChange = "2024-07-22 11:56:35 +0000";
layers = (
{
layerId = m01;
shapes = (
{
closed = 1;
nodes = (
(397,-184,l),
(502,-210,l),
(761,-181,l),
(780,-139,l),
(797,-92,l),
(685,-50,l),
(524,-137,l),
(467,-33,l),
(326,-61,l)
);
},
{
closed = 1;
nodes = (
(469,-33,l),
(372,128,l),
(367,236,l),
(250,266,l),
(206,226,l),
(329,-61,l),
(422,-86,l)
);
},
{
closed = 1;
nodes = (
(142,0,l),
(232,108,l),
(177,174,l),
(266,589,l),
(337,612,l),
(206,648,l),
(154,631,l),
(89,583,l),
(70,495,l),
(-3,151,l),
(103,0,l)
);
},
{
closed = 1;
nodes = (
(556,140,l),
(645,558,l),
(651,607,l),
(594,699,l),
(507,683,l),
(424,614,l),
(484,541,l),
(422,254,l),
(414,213,l),
(397,132,l),
(338,132,l),
(105,133,l),
(120,0,l),
(274,0,l),
(356,0,l)
);
},
{
closed = 1;
nodes = (
(342,576,l),
(562,576,l),
(594,699,l),
(397,699,l),
(330,676,l),
(280,699,l),
(96,611,l),
(89,583,l),
(188,570,l)
);
}
);
width = 642;
}
);
metricLeft = O;
},
{
glyphname = A.ss02;
kernLeft = altA2_l;
kernRight = altA2_r;
lastChange = "2024-05-20 09:19:14 +0000";
layers = (
{
anchors = (
{
name = bottom;
pos = (483,-7);
},
{
name = ogonek;
pos = (531,10);
},
{
name = top;
pos = (608,750);
}
);
layerId = m01;
shapes = (
{
closed = 1;
nodes = (
(754,696,l),
(636,553,l),
(565,546,l),
(472,196,l),
(451,47,l),
(483,-7,l),
(617,57,l),
(728,550,l),
(782,662,l)
);
},
{
closed = 1;
nodes = (
(633,12,l),
(651,94,l),
(630,132,l),
(472,108,l),
(439,75,l),
(412,8,l),
(483,-7,l)
);
},
{
closed = 1;
nodes = (
(151,0,l),
(174,28,l),
(185,115,l),
(436,507,l),
(551,570,l),
(361,579,l),
(294,468,l),
(237,449,l),
(-32,-2,l)
);
},
{
closed = 1;
nodes = (
(-23,76,l),
(-32,-2,l),
(115,39,l),
(134,126,l),
(87,163,l)
);
},
{
closed = 1;
nodes = (
(300,631,l),
(289,442,l),
(430,546,l),
(673,542,l),
(754,696,l),
(538,678,l),
(490,700,l)
);
},
{
closed = 1;
nodes = (
(678,265,l),
(734,339,l),
(731,397,l),
(203,250,l),
(287,174,l)
);
}
);
width = 743;
}
);
metricRight = A;
},
{
glyphname = A.ss03;
kernLeft = altA3_l;
kernRight = altA3_r;
lastChange = "2024-05-09 11:26:50 +0000";
layers = (
{
anchors = (
{
name = bottom;
pos = (543,-20);
},
{
name = ogonek;
pos = (622,10);
},
{
name = top;
pos = (442,758);
}
);
layerId = m01;
shapes = (
{
closed = 1;
nodes = (
(381,208,l),
(487,304,l),
(485,362,l),
(65,240,l),
(27,153,l),
(59,142,l)
);
},
{
closed = 1;
nodes = (
(176,664,l),
(178,590,l),
(305,532,l),
(480,551,l),
(497,700,l),
(207,694,l)
);
},
{
closed = 1;
nodes = (
(730,45,l),
(697,117,l),
(591,681,l),
(497,700,l),
(398,681,l),
(431,526,l),
(452,422,l),
(521,99,l),
(488,21,l),
(507,-10,l),
(695,-8,l)
);
},
{
closed = 1;
nodes = (
(161,0,l),
(184,28,l),
(195,115,l),
(336,429,l),
(364,561,l),
(274,604,l),
(-30,-14,l)
);
},
{
closed = 1;
nodes = (
(-22,64,l),
(-30,-14,l),
(125,39,l),
(144,126,l),
(97,163,l)
);
}
);
width = 751;
}
);
metricLeft = A;
},
{
glyphname = T_T;
kernLeft = T;
lastChange = "2024-05-09 10:52:55 +0000";
layers = (
{
anchors = (
{
name = bottom;
pos = (871,22);
},
{
name = center;
pos = (900,340);
},
{
name = top;
pos = (976,697);
}
);
layerId = m01;
shapes = (
{
closed = 1;
nodes = (
(311,-2,l),
(351,56,l),
(361,107,l),
(334,134,l),
(416,502,l),
(381,546,l),
(425,602,l),
(250,573,l),
(238,508,l),
(171,142,l),
(114,0,l),
(162,-17,l)
);
},
{
closed = 1;
nodes = (
(343,544,l),
(521,556,l),
(576,647,l),
(556,719,l),
(124,649,l),
(67,550,l),
(105,520,l)
);
},
{
closed = 1;
nodes = (
(538,635,l),
(556,719,l),
(185,691,l),
(146,621,l)
);
},
{
closed = 1;
nodes = (
(84,-3,l),
(162,-17,l),
(190,-17,l),
(240,114,l),
(130,94,l)
);
},
{
closed = 1;
nodes = (
(772,-2,l),
(812,56,l),
(822,107,l),
(795,134,l),
(868,502,l),
(842,546,l),
(886,602,l),
(711,573,l),
(699,508,l),
(632,142,l),
(575,0,l),
(623,-17,l)
);
},
{
closed = 1;
nodes = (
(545,-3,l),
(623,-17,l),
(651,-17,l),
(701,114,l),
(591,94,l)
);
},
{
closed = 1;
nodes = (
(821,544,l),
(995,562,l),
(1059,630,l),
(1034,719,l),
(602,649,l),
(545,550,l),
(583,520,l)
);
},
{
closed = 1;
nodes = (
(1016,635,l),
(1034,719,l),
(639,691,l),
(624,621,l)
);
}
);
width = 980;
}
);
metricLeft = T;
metricRight = T;
},
{
glyphname = a;
kernLeft = a;
kernRight = ar;
lastChange = "2024-05-20 12:51:55 +0000";
layers = (
{
anchors = (
{
name = bottom;
pos = (191,0);
},
{
name = ogonek;
pos = (408,8);
},
{
name = top;
pos = (322,546);
}
);
layerId = m01;
shapes = (
{
closed = 1;
nodes = (
(201,0,l),
(331,170,l),
(322,205,l),
(184,119,l),
(136,180,l),
(210,402,l),
(345,381,l),
(388,377,l),
(397,452,l),
(327,520,l),
(178,518,l),
(47,418,l),
(-13,186,l),
(-6,112,l),
(46,0,l)
);
},
{
closed = 1;
nodes = (
(445,0,l),
(468,96,l),
(434,146,l),
(508,436,l),
(422,452,l),
(359,436,l),
(320,286,l),
(314,266,l),
(283,105,l),
(252,46,l),
(266,0,l)
);
},
{
closed = 1;
nodes = (
(522,520,l),
(400,520,l),
(329,452,l),
(316,402,l),
(416,385,l),
(509,398,l),
(547,501,l)
);
}
);
width = 531;
}
);
unicode = 97;
},
{
glyphname = ae;
kernLeft = a;
kernRight = e;
lastChange = "2024-05-20 10:11:14 +0000";
layers = (
{
anchors = (
{
name = bottom;
pos = (708,0);
},
{
name = ogonek;
pos = (926,8);
},
{
name = top;
pos = (467,549);
}
);
layerId = m01;
shapes = (
{
closed = 1;
nodes = (
(201,0,l),
(331,170,l),
(322,205,l),
(184,119,l),
(136,180,l),
(210,402,l),
(345,381,l),
(388,377,l),
(397,452,l),
(327,520,l),
(178,518,l),
(47,418,l),
(-13,186,l),
(-6,112,l),
(46,0,l)
);
},
{
closed = 1;
nodes = (
(441,0,l),
(468,96,l),
(434,146,l),
(508,436,l),
(422,452,l),
(359,436,l),
(320,286,l),
(314,266,l),
(283,105,l),
(252,46,l),
(266,0,l)
);
},
{
closed = 1;
nodes = (
(522,520,l),
(400,520,l),
(329,452,l),
(316,402,l),
(416,385,l),
(509,398,l),
(547,501,l)
);
},
{
closed = 1;
nodes = (
(572,45,l),
(472,78,l),
(455,211,l),
(458,235,l),
(498,387,l),
(547,433,l),
(482,510,l),
(397,490,l),
(329,329,l),
(301,209,l),
(299,86,l),
(316,45,l)
);
},
{
closed = 1;
nodes = (
(387,12,l),
(464,32,l),
(496,0,l),
(722,1,l),
(774,156,l),
(748,208,l),
(601,154,l),
(584,98,l),
(560,76,l),
(316,45,l)
);
},
{
closed = 1;
nodes = (
(822,301,l),
(847,478,l),
(752,510,l),
(608,526,l),
(482,510,l),
(483,424,l),
(485,363,l),
(638,433,l),
(670,425,l),
(652,306,l),
(434,302,l),
(411,235,l),
(530,240,l),
(603,191,l)
);
}
);
width = 827;
}
);
metricLeft = a;
metricRight = e;
unicode = 230;
},
{
glyphname = b;
kernLeft = h;
kernRight = o;
lastChange = "2024-05-11 09:09:22 +0000";
layers = (
{
layerId = m01;
shapes = (
{
closed = 1;
nodes = (
(443,0,l),
(541,243,l),
(558,407,l),
(527,506,l),
(351,531,l),
(259,471,l),
(261,357,l),
(317,390,l),
(432,426,l),
(346,170,l),
(257,81,l),
(224,208,l),
(193,145,l),
(232,0,l)
);
},
{
closed = 1;
nodes = (
(182,0,l),
(220,58,l),
(215,118,l),
(320,614,l),
(213,668,l),
(156,634,l),
(53,117,l),
(-13,81,l),
(-13,0,l)
);
},
{
closed = 1;
nodes = (
(262,577,l),
(300,655,l),
(220,682,l),
(99,655,l),
(104,560,l),
(190,547,l)
);
}
);
width = 581;
}
);
metricLeft = h;
unicode = 98;
},
{
glyphname = c;
kernLeft = c;
lastChange = "2024-05-20 12:39:31 +0000";
layers = (
{
anchors = (
{
name = bottom;
pos = (234,59);
},
{
name = top;
pos = (272,520);
}
);
layerId = m01;
shapes = (
{
closed = 1;
nodes = (
(252,45,l),
(227,78,l),
(197,211,l),
(192,235,l),
(232,387,l),
(274,433,l),
(191,505,l),
(106,485,l),
(39,329,l),
(11,209,l),
(9,86,l),
(26,45,l)
);
},
{
closed = 1;
nodes = (
(99,2,l),
(191,32,l),
(223,0,l),
(402,1,l),
(448,156,l),
(422,183,l),
(288,154,l),
(267,100,l),
(229,55,l),
(26,45,l)
);
},
{
closed = 1;
nodes = (
(490,331,l),
(531,493,l),
(435,525,l),
(333,521,l),
(191,505,l),
(165,452,l),
(212,363,l),
(318,433,l),
(368,444,l),
(341,334,l),
(381,321,l)
);
}
);
width = 510;
}
);
unicode = 99;
},
{
glyphname = d;
kernLeft = c;
kernRight = d;
lastChange = "2024-05-20 13:01:29 +0000";
layers = (
{
anchors = (
{
name = bottom;
pos = (224,0);
},
{
name = center;
pos = (494,358);
},
{
name = top;
pos = (469,670);
},
{
name = topright;
pos = (653,800);
}
);
layerId = m01;
shapes = (
{
closed = 1;
nodes = (
(191,0,l),
(319,148,l),
(408,287,l),
(240,136,l),
(203,130,l),
(199,364,l),
(219,400,l),
(329,401,l),
(372,396,l),
(406,467,l),
(329,520,l),
(243,520,l),
(80,403,l),
(-8,118,l),
(37,0,l)
);
},
{
closed = 1;
nodes = (
(483,0,l),
(506,92,l),
(456,128,l),
(570,634,l),
(441,629,l),
(383,566,l),
(286,96,l),
(250,37,l),
(267,-2,l)
);
},
{
closed = 1;
nodes = (
(576,562,l),
(621,657,l),
(512,684,l),
(420,657,l),
(383,566,l),
(483,549,l)
);
}
);
width = 558;
}
);
metricLeft = c;
unicode = 100;
},
{
glyphname = dcroat;
kernLeft = c;
kernRight = d;
lastChange = "2024-05-09 11:26:50 +0000";
layers = (
{
layerId = m01;
shapes = (
{
closed = 1;
nodes = (
(191,5,l),
(297,40,l),
(405,276,l),
(237,125,l),
(201,119,l),
(224,378,l),
(244,414,l),
(329,401,l),
(372,396,l),
(406,467,l),
(340,527,l),
(126,476,l),
(80,403,l),
(-11,107,l),
(34,-20,l)
);
},
{
closed = 1;
nodes = (
(486,10,l),
(508,98,l),
(457,134,l),
(589,723,l),
(460,718,l),
(402,656,l),
(284,85,l),
(247,26,l),
(261,-20,l)
);
},
{
closed = 1;
nodes = (
(332,586,l),
(352,547,l),
(566,547,l),
(626,634,l),
(625,664,l),
(354,671,l)
);
}
);
width = 563;
}
);
metricLeft = d;
metricRight = d;
unicode = 273;
},
{
glyphname = eth;
kernLeft = c;
kernRight = d;
lastChange = "2024-05-09 11:26:50 +0000";
layers = (
{
layerId = m01;
shapes = (
{
closed = 1;
nodes = (
(242,-5,l),
(325,40,l),
(405,276,l),
(237,125,l),
(173,68,l),
(166,312,l),
(224,346,l),
(319,267,l),
(363,303,l),
(368,324,l),
(318,405,l),
(189,463,l),
(80,403,l),
(-11,107,l),
(34,-20,l)
);
},
{
closed = 1;
nodes = (
(457,134,l),
(530,449,l),
(504,574,l),
(416,685,l),
(347,704,l),
(260,647,l),
(267,612,l),
(362,463,l),
(284,85,l),
(247,26,l),
(329,-5,l)
);
},
{
closed = 1;
nodes = (
(235,506,l),
(270,444,l),
(559,586,l),
(559,680,l),
(512,705,l),
(266,565,l)
);
}
);
width = 506;
}
);
metricLeft = d;
metricRight = d;
unicode = 240;
},
{
glyphname = e;
kernLeft = c;
lastChange = "2024-05-20 12:41:27 +0000";
layers = (
{
anchors = (
{
name = bottom;
pos = (202,0);
},
{
name = ogonek;
pos = (420,8);
},
{
name = top;
pos = (337,542);
}
);
layerId = m01;
shapes = (
{
closed = 1;
nodes = (
(282,45,l),
(210,78,l),
(193,211,l),
(196,235,l),
(236,387,l),
(257,433,l),
(192,510,l),
(107,490,l),
(39,329,l),
(11,209,l),
(9,86,l),
(26,45,l)
);
},
{
closed = 1;
nodes = (
(93,-2,l),
(174,32,l),
(206,0,l),
(432,1,l),
(484,156,l),
(458,208,l),
(311,154,l),
(294,98,l),
(270,76,l),
(26,45,l)
);
},
{
closed = 1;
nodes = (
(532,301,l),
(557,478,l),
(462,510,l),
(318,526,l),
(192,510,l),
(193,424,l),
(195,363,l),
(348,433,l),
(380,425,l),
(362,306,l),
(144,302,l),
(121,235,l),
(240,240,l),
(313,191,l)
);
}
);
width = 537;
}
);
unicode = 101;
},
{
glyphname = schwa;
kernLeft = c;
lastChange = "2024-05-09 10:52:55 +0000";
layers = (
{
anchors = (
{
name = bottom;
pos = (191,-22);
},
{
name = ogonek;
pos = (108,512);
},
{
name = top;
pos = (326,520);
}
);
layerId = m01;
shapes = (
{
closed = 1;
nodes = (
(98,256,l),
(32,219,l),
(-9,95,l),
(37,-10,l),
(191,-7,l),
(272,14,l),
(347,119,l),
(324,190,l),
(141,95,l),
(133,182,l),
(146,203,l),
(281,217,l),
(324,212,l),
(359,283,l),
(251,328,l)
);
},
{
closed = 1;
nodes = (
(167,466,l),
(128,393,l),
(249,417,l),
(393,417,l),
(294,119,l),
(257,60,l),
(272,14,l),
(453,98,l),
(491,204,l),
(531,434,l),
(403,540,l)
);
},
{
closed = 1;
nodes = (
(130,474,l),
(63,417,l),
(67,331,l),
(130,294,l),
(208,342,l),
(209,388,l),
(294,429,l),
(307,492,l),
(295,520,l)
);
},
{
closed = 1;
nodes = (
(196,66,l),
(191,-7,l),
(368,17,l),
(420,113,l)
);
}
);
width = 533;
}
);
unicode = 601;
},
{
glyphname = f;
lastChange = "2024-05-20 12:56:02 +0000";
layers = (
{
layerId = m01;
shapes = (
{
closed = 1;
nodes = (
(210,10,l),
(245,134,l),
(299,526,l),
(214,616,l),
(191,658,l),
(133,596,l),
(116,403,l),
(41,28,l),
(45,-13,l)
);
},
{
closed = 1;
nodes = (
(343,387,l),
(355,407,l),
(379,519,l),
(351,519,l),
(74,520,l),
(50,409,l),
(114,379,l)
);
},
{
closed = 1;
nodes = (
(418,674,l),
(262,714,l),
(170,686,l),
(133,596,l),
(206,585,l),
(373,578,l)
);
},
{
closed = 1;
nodes = (
(175,314,l),
(134,373,l),
(45,-13,l),
(123,-109,l),
(121,-146,l),
(185,-93,l),
(236,113,l),
(269,302,l)
);
},
{
closed = 1;
nodes = (
(-76,-109,l),
(48,-192,l),
(133,-170,l),
(185,-93,l),
(105,-63,l),
(-62,-55,l)
);
}
);
width = 344;
}
);
unicode = 102;
},
{
glyphname = g;
kernLeft = c;
lastChange = "2024-07-22 11:59:06 +0000";
layers = (
{
anchors = (
{
name = bottom;
pos = (163,-240);
},
{
name = top;
pos = (360,552);
}
);
layerId = m01;
shapes = (
{
closed = 1;
nodes = (
(114,38,l),
(199,117,l),
(238,379,l),
(181,412,l),
(199,469,l),
(146,452,l),
(77,417,l),
(41,222,l),
(15,60,l)
);
},
{
closed = 1;
nodes = (
(331,-239,l),
(246,-98,l),
(99,-178,l),
(124,-63,l),
(80,-34,l),
(18,-36,l),
(-51,-74,l),
(5,-155,l),
(95,-253,l)
);
},
{
closed = 1;
nodes = (
(222,0,l),
(292,102,l),
(362,18,l),
(367,91,l),
(323,173,l),
(222,89,l),
(52,89,l),
(15,60,l),
(45,0,l)
);
},
{
closed = 1;
nodes = (
(383,-20,l),
(412,188,l),
(328,112,l),
(277,108,l),
(251,-66,l),
(220,-131,l),
(167,-145,l),
(184,-184,l),
(206,-234,l),
(331,-239,l)
);
},
{
closed = 1;
nodes = (
(502,376,l),
(508,504,l),
(462,520,l),
(376,515,l),
(331,318,l),
(292,146,l),
(326,136,l),
(383,-20,l)
);
},
{
closed = 1;
nodes = (
(419,397,l),
(462,520,l),
(226,520,l),
(161,520,l),
(77,417,l),
(194,397,l)
);
},
{
closed = 1;
nodes = (
(528,365,l),
(579,433,l),
(591,520,l),
(516,520,l),
(476,500,l),
(436,465,l),
(460,354,l)
);
}
);
width = 548;
}
);
unicode = 103;
},
{
glyphname = h;
kernLeft = h;
kernRight = n;
lastChange = "2024-05-20 12:39:28 +0000";
layers = (
{
anchors = (
{
name = bottom;
pos = (210,0);
},
{
name = center;
pos = (194,571);
},
{
name = top;
pos = (224,699);
}
);
layerId = m01;
shapes = (
{
closed = 1;
nodes = (
(211,1,l),
(237,91,l),
(197,143,l),
(282,520,l),
(303,606,l),
(181,658,l),
(123,596,l),
(27,105,l),
(-10,45,l),
(4,0,l)
);
},
{
closed = 1;
nodes = (
(377,0,l),
(446,43,l),
(475,65,l),
(462,142,l),
(553,508,l),
(433,528,l),
(350,521,l),
(256,413,l),
(247,379,l),
(331,424,l),
(353,414,l),
(301,116,l),
(263,-10,l)
);
},
{
closed = 1;
nodes = (
(303,606,l),
(319,683,l),
(214,713,l),
(123,686,l),
(86,595,l),
(159,584,l)
);
}
);
width = 540;
}
);
metricRight = n;
unicode = 104;
},
{
glyphname = hbar;
kernLeft = h;
kernRight = n;
lastChange = "2024-05-09 15:23:06 +0000";
layers = (
{
anchors = (
{
name = bottom;
pos = (213,0);
},
{
name = center;
pos = (197,571);
},
{
name = top;
pos = (227,699);
}
);
layerId = m01;
shapes = (
{
closed = 1;
nodes = (
(229,19,l),
(250,107,l),
(200,143,l),
(285,520,l),
(329,714,l),
(208,723,l),
(151,716,l),
(27,94,l),
(-10,34,l),
(4,-11,l)
);
},
{
closed = 1;
nodes = (
(381,0,l),
(449,43,l),
(479,65,l),
(465,142,l),
(557,508,l),
(437,528,l),
(353,521,l),
(259,413,l),
(250,379,l),
(335,424,l),
(356,414,l),
(305,116,l),
(266,-10,l)
);
},
{
closed = 1;
nodes = (
(70,519,l),
(380,544,l),
(418,591,l),
(417,654,l),
(122,646,l),
(87,594,l)
);
}
);
width = 544;
}
);
metricLeft = h;
metricRight = h;
unicode = 295;
},
{
glyphname = i;
kernRight = ar;
lastChange = "2024-05-20 12:41:16 +0000";
layers = (
{
anchors = (
{
name = bottom;
pos = (117,45);
},
{
name = right;
pos = (861,330);
},
{
name = top;
pos = (605,520);
}
);
layerId = m01;
shapes = (
{
closed = 1;
nodes = (
(253,546,l),
(349,614,l),
(333,679,l),
(290,731,l),
(171,690,l),
(108,617,l),
(141,542,l)
);
},
{
closed = 1;
nodes = (
(254,520,l),
(81,503,l),
(50,409,l),
(68,374,l),
(102,363,l),
(55,138,l),
(16,103,l),
(-7,0,l),
(54,0,l),
(222,0,l),
(245,92,l),
(213,153,l),
(252,326,l),
(293,499,l)
);
}
);
width = 312;
}
);
metricLeft = i;
unicode = 105;
},
{
glyphname = idotless;
kernLeft = a;
kernRight = ar;
lastChange = "2024-05-20 11:36:51 +0000";
layers = (
{
anchors = (
{
name = bottom;
pos = (88,0);
},
{
name = ogonek;
pos = (228,0);
},
{
name = top;
pos = (228,549);
}
);
layerId = m01;
shapes = (
{
closed = 1;
nodes = (
(228,0,l),
(242,72,l),
(210,133,l),
(250,326,l),
(299,522,l),
(168,520,l),
(74,480,l),
(48,402,l),
(66,367,l),
(100,356,l),
(56,139,l),
(17,104,l),
(3,38,l),
(49,0,l)
);
}
);
width = 314;
}
);
metricLeft = i;
metricRight = i;
unicode = 305;
},
{
glyphname = iogonek;
lastChange = "2024-05-20 11:39:46 +0000";
layers = (
{
layerId = m01;
shapes = (
{
closed = 1;
nodes = (
(178,-193,l),
(174,-161,l),
(94,-152,l),
(85,-42,l),
(174,4,l),
(185,55,l),
(93,53,l),
(82,3,l),
(-46,-73,l),
(-74,-172,l),
(32,-247,l)
);
},
{
pos = (5,0);
ref = i;
}
);
width = 317;
}
);
metricLeft = i;
metricRight = i;
unicode = 303;
},
{
glyphname = ij;
lastChange = "2024-05-09 15:23:06 +0000";
layers = (
{
anchors = (
{
name = bottom;
pos = (493,0);
},
{
name = right;
pos = (859,330);
},
{
name = top;
pos = (603,520);
}
);
layerId = m01;
shapes = (
{
closed = 1;
nodes = (
(232,21,l),
(246,93,l),
(214,154,l),
(250,326,l),
(299,522,l),
(74,480,l),
(48,402,l),
(66,367,l),
(100,356,l),
(56,139,l),
(17,104,l),
(3,38,l),
(49,-12,l)
);
},
{
closed = 1;
nodes = (
(515,-14,l),
(600,429,l),
(636,488,l),
(622,534,l),
(397,503,l),
(376,415,l),
(425,379,l),
(382,177,l),
(390,24,l),
(451,-26,l)
);
},
{
closed = 1;
nodes = (
(496,-99,l),
(515,-14,l),
(460,2,l),
(340,-14,l),
(211,-70,l),
(216,-149,l),
(421,-148,l)
);
},
{
pos = (381,53);
ref = dotaccentcomb;
},
{
pos = (32,42);
ref = dotaccentcomb;
}
);
width = 619;
}
);
metricLeft = i;
metricRight = j;
unicode = 307;
},
{
glyphname = j;
kernLeft = j;
lastChange = "2024-05-09 12:54:32 +0000";
layers = (
{
layerId = m01;
shapes = (
{
closed = 1;
nodes = (
(166,-151,l),
(306,415,l),
(342,474,l),
(328,520,l),
(107,520,l),
(82,415,l),
(131,379,l),
(33,40,l),
(41,-113,l),
(102,-163,l)
);
},
{
closed = 1;
nodes = (
(148,-215,l),
(167,-130,l),
(112,-114,l),
(-8,-130,l),
(-128,-114,l),
(-113,-257,l),
(73,-264,l)
);
},
{
closed = 1;
nodes = (
(279,554,l),
(375,622,l),
(358,687,l),
(316,739,l),
(197,698,l),
(134,625,l),
(167,550,l)
);
},
{
closed = 1;
nodes = (
(-112,-211,l),
(13,-217,l),
(35,-182,l),
(-66,-58,l),
(-92,-59,l),
(-128,-114,l)
);
}
);
width = 329;
}
);
metricRight = i;
unicode = 106;
},
{
glyphname = jdotless;
kernLeft = j;
lastChange = "2024-05-20 11:40:23 +0000";
layers = (
{
anchors = (
{
name = bottom;
pos = (-4,-250);
},
{
name = top;
pos = (206,565);
}
);
layerId = m01;
shapes = (
{
closed = 1;
nodes = (
(168,-14,l),
(253,429,l),
(289,488,l),
(275,520,l),
(56,520,l),
(35,432,l),
(78,379,l),
(35,177,l),
(43,24,l),
(104,-26,l)
);
},
{
closed = 1;
nodes = (
(149,-99,l),
(168,-14,l),
(113,2,l),
(-7,-14,l),
(-117,-62,l),
(-112,-141,l),
(74,-148,l)
);
}
);
width = 272;
}
);
metricLeft = j;
metricRight = j;
unicode = 567;
},
{
glyphname = k;
kernLeft = h;
lastChange = "2024-05-20 12:57:05 +0000";
layers = (
{
layerId = m01;
shapes = (
{
closed = 1;
nodes = (
(214,0,l),
(248,110,l),
(198,146,l),
(254,388,l),
(268,450,l),
(293,552,l),
(171,605,l),
(113,542,l),
(24,97,l),
(-12,38,l),
(2,0,l)
);
},
{
closed = 1;
nodes = (
(424,53,l),
(464,140,l),
(386,247,l),
(365,261,l),
(279,294,l),
(214,290,l),
(146,232,l),
(270,194,l),
(287,10,l),
(331,0,l)
);
},
{
closed = 1;
nodes = (
(470,0,l),
(523,60,l),
(484,112,l),
(362,80,l),
(347,118,l),
(324,37,l),
(331,0,l)
);
},
{
closed = 1;
nodes = (
(293,552,l),
(310,630,l),
(205,659,l),
(113,632,l),
(76,542,l),
(149,530,l)
);
},
{
closed = 1;
nodes = (
(517,379,l),
(532,431,l),
(456,469,l),
(415,491,l),
(365,453,l),
(313,395,l),
(214,290,l),
(365,261,l)
);
},
{
closed = 1;
nodes = (
(532,431,l),
(539,504,l),
(490,533,l),
(401,532,l),
(339,481,l),
(379,429,l),
(414,365,l)
);
}
);
width = 566;
}
);
unicode = 107;
},
{
glyphname = l;
kernLeft = h;
lastChange = "2024-05-20 13:01:02 +0000";
layers = (
{
anchors = (
{
name = bottom;
pos = (86,0);
},
{
name = center;
pos = (141,260);
},
{
name = top;
pos = (237,714);
},
{
name = topright;
pos = (373,714);
}
);
layerId = m01;
shapes = (
{
closed = 1;
nodes = (
(218,0,l),
(241,95,l),
(192,131,l),
(282,520,l),
(303,606,l),
(181,658,l),
(123,596,l),
(18,82,l),
(-17,42,l),
(-2,-3,l)
);
},
{
closed = 1;
nodes = (
(303,606,l),
(319,683,l),
(214,713,l),
(123,686,l),
(86,595,l),
(159,584,l)
);
}
);
width = 304;
}
);
metricLeft = h;
metricRight = a;
unicode = 108;
},
{
glyphname = lslash;
kernLeft = h;
lastChange = "2024-05-09 15:23:06 +0000";
layers = (
{
layerId = m01;
shapes = (
{
pos = (11,0);
ref = l;
},
{
closed = 1;
nodes = (
(30,329,l),
(49,290,l),
(267,309,l),
(329,395,l),
(327,426,l),
(52,414,l)
);
}
);
width = 328;
}
);
metricLeft = l;
metricRight = l;
unicode = 322;
},
{
glyphname = m;
kernLeft = a;
kernRight = n;
lastChange = "2024-05-20 12:52:02 +0000";
layers = (
{
layerId = m01;
shapes = (
{
closed = 1;
nodes = (
(259,1,l),
(272,73,l),
(241,134,l),
(280,326,l),
(330,522,l),
(185,520,l),
(76,480,l),
(50,402,l),
(68,367,l),
(102,356,l),
(60,152,l),
(20,116,l),
(6,51,l),
(53,0,l)
);
},
{
closed = 1;
nodes = (
(461,16,l),
(511,73,l),
(499,150,l),
(587,508,l),
(467,528,l),
(383,521,l),
(289,413,l),
(280,379,l),
(365,424,l),
(386,414,l),
(338,124,l),
(298,-2,l)
);
},
{
closed = 1;
nodes = (
(713,0,l),
(769,71,l),
(755,149,l),
(844,508,l),
(724,528,l),
(641,521,l),
(547,413,l),
(538,379,l),
(622,424,l),
(643,414,l),
(596,122,l),
(557,0,l)
);
}
);
width = 833;
}
);
unicode = 109;
},
{
glyphname = n;
kernLeft = a;
kernRight = n;
lastChange = "2024-05-20 12:56:27 +0000";
layers = (
{
anchors = (
{
name = bottom;
pos = (273,0);
},
{
name = right;
pos = (861,330);
},
{
name = top;
pos = (369,534);
}
);
layerId = m01;
shapes = (
{
closed = 1;
nodes = (
(253,1,l),
(275,93,l),
(243,154,l),
(280,326,l),
(330,522,l),
(170,520,l),
(76,480,l),
(50,402,l),
(68,367,l),
(102,356,l),
(56,139,l),
(17,104,l),
(3,38,l),
(14,0,l)
);
},
{
closed = 1;
nodes = (
(465,0,l),
(508,64,l),
(495,142,l),
(587,508,l),
(467,528,l),
(383,521,l),
(289,413,l),
(280,379,l),
(365,424,l),
(386,414,l),
(335,116,l),
(309,0,l)
);
}
);
width = 574;
}
);
metricLeft = m;
metricRight = m;
unicode = 110;
},
{
glyphname = o;
kernLeft = c;
kernRight = o;
lastChange = "2024-07-22 11:53:53 +0000";
layers = (
{
anchors = (
{
name = bottom;
pos = (212,0);
},
{
name = center;
pos = (267,260);
},
{
name = ogonek;
pos = (407,8);
},
{
name = top;
pos = (315,555);
},
{
name = topright;
pos = (548,520);
}
);
layerId = m01;
shapes = (
{
closed = 1;
nodes = (
(-13,95,l),
(76,0,l),
(145,0,l),
(343,0,l),
(461,95,l),
(524,393,l),
(505,495,l),
(400,520,l),
(302,520,l),
(213,520,l),
(116,495,l),
(50,393,l),
(12,215,l)
);
},
{
closed = 1;
nodes = (
(320,261,l),
(293,129,l),
(270,67,l),
(207,67,l),
(180,141,l),
(228,376,l),
(253,444,l),
(315,444,l),
(343,371,l)
);
}
);
width = 532;
}
);
metricLeft = c;
metricRight = b;
unicode = 111;
},
{
glyphname = oslash;
kernLeft = c;
kernRight = o;
lastChange = "2024-05-20 11:42:30 +0000";
layers = (
{
layerId = m01;
shapes = (
{
closed = 1;
nodes = (
(4,-12,l),
(14,-54,l),
(61,-68,l),
(520,545,l),
(506,575,l),
(433,570,l)
);
},
{
ref = o;
}
);
width = 513;
}
);
metricLeft = o;
metricRight = o;
unicode = 248;
},
{
glyphname = oe;
kernLeft = c;
kernRight = e;
lastChange = "2024-05-20 10:13:15 +0000";
layers = (
{
layerId = m01;
shapes = (
{
closed = 1;
nodes = (
(109,25,l),
(169,58,l),
(228,366,l),
(232,371,l),
(177,469,l),
(125,452,l),
(42,355,l),
(41,316,l),
(-1,41,l),
(19,15,l)
);
},
{
closed = 1;
nodes = (
(383,41,l),
(502,379,l),
(479,484,l),
(417,520,l),
(365,509,l),
(307,152,l),
(280,124,l),
(141,114,l),
(23,25,l),
(76,-1,l),
(289,0,l)
);
},
{
closed = 1;
nodes = (
(173,397,l),
(430,419,l),
(417,520,l),
(222,520,l),
(127,504,l),
(42,355,l),
(75,382,l)
);
},
{
closed = 1;
nodes = (
(580,45,l),
(483,76,l),
(466,209,l),
(472,237,l),
(512,389,l),
(555,433,l),
(490,510,l),
(405,490,l),
(337,329,l),
(309,209,l),
(307,86,l),
(324,45,l)
);
},
{
closed = 1;
nodes = (
(391,-2,l),
(472,32,l),
(504,0,l),
(730,1,l),
(782,156,l),
(756,208,l),
(609,154,l),
(592,98,l),
(568,76,l),
(324,45,l)
);
},
{
closed = 1;
nodes = (
(830,301,l),
(855,478,l),
(760,510,l),
(616,526,l),
(490,510,l),
(491,424,l),
(493,363,l),
(646,433,l),
(678,425,l),
(660,306,l),
(442,302,l),
(419,235,l),
(538,240,l),
(611,191,l)
);
}
);
width = 835;
}
);
metricLeft = o;
metricRight = e;
unicode = 339;
},
{
glyphname = p;
kernLeft = a;
kernRight = o;
lastChange = "2024-07-22 12:02:24 +0000";
layers = (
{
layerId = m01;
shapes = (
{
closed = 1;
nodes = (
(399,0,l),
(485,130,l),
(539,298,l),
(533,520,l),
(379,520,l),
(258,415,l),
(164,407,l),
(161,294,l),
(306,396,l),
(404,396,l),
(424,347,l),
(300,97,l),
(221,95,l),
(182,174,l),
(165,130,l),
(224,0,l)
);
},
{
closed = 1;
nodes = (
(140,-140,l),
(121,-76,l),
(62,-46,l),
(-31,-59,l),
(-75,-154,l),
(29,-195,l)
);
},
{
closed = 1;
nodes = (
(140,-140,l),
(244,410,l),
(300,469,l),
(269,520,l),
(69,520,l),
(51,446,l),
(88,409,l),
(-25,-162,l),
(29,-195,l)
);
}
);
width = 567;
}
);
metricRight = b;
unicode = 112;
},
{
glyphname = thorn;
kernLeft = l;
kernRight = o;
lastChange = "2024-05-09 11:26:50 +0000";
layers = (
{
layerId = m01;
shapes = (
{
closed = 1;
nodes = (
(415,30,l),
(488,130,l),
(542,298,l),
(545,473,l),
(377,532,l),
(253,490,l),
(167,407,l),
(164,294,l),
(389,383,l),
(421,335,l),
(323,98,l),
(224,95,l),
(186,174,l),
(118,174,l),
(168,130,l),
(208,-15,l)
);
},
{
closed = 1;
nodes = (
(143,-140,l),
(125,-76,l),
(65,-46,l),
(-28,-59,l),
(-72,-154,l),
(32,-195,l)
);
},
{
closed = 1;
nodes = (
(143,-140,l),
(285,590,l),
(341,648,l),
(327,694,l),
(114,714,l),
(93,626,l),
(142,590,l),
(-9,-161,l),
(32,-195,l)
);
}
);
width = 570;
}
);
metricLeft = l;
metricRight = o;
unicode = 254;
},
{
glyphname = q;
kernLeft = c;
lastChange = "2024-07-22 12:14:41 +0000";
layers = (
{
layerId = m01;
shapes = (
{
closed = 1;
nodes = (
(308,115,l),
(304,174,l),
(238,90,l),
(107,115,l),
(211,369,l),
(305,383,l),
(389,294,l),
(368,423,l),
(251,520,l),
(111,484,l),
(26,278,l),
(8,109,l),
(69,0,l),
(191,0,l)
);
},
{
closed = 1;
nodes = (
(442,-191,l),
(437,-96,l),
(350,-83,l),
(279,-113,l),
(241,-165,l),
(319,-232,l)
);
},
{
closed = 1;
nodes = (
(377,-198,l),
(485,358,l),
(531,383,l),
(565,520,l),
(350,520,l),
(325,469,l),
(337,410,l),
(212,-178,l),
(319,-232,l)
);
}
);
width = 538;
}
);
metricLeft = c;
unicode = 113;
},
{
glyphname = r;
kernLeft = a;
kernRight = r;
lastChange = "2024-05-20 13:01:08 +0000";
layers = (
{
anchors = (
{
name = bottom;
pos = (179,0);
},
{
name = top;
pos = (292,534);
}
);
layerId = m01;
shapes = (
{
closed = 1;
nodes = (
(228,26,l),
(250,114,l),
(200,150,l),
(245,340,l),
(265,426,l),
(144,478,l),
(86,416,l),
(26,101,l),
(-10,42,l),
(4,-4,l)
);
},
{
closed = 1;
nodes = (
(265,426,l),
(282,503,l),
(177,533,l),
(86,506,l),
(49,415,l),
(122,404,l)
);
},
{
closed = 1;
nodes = (
(500,430,l),
(520,510,l),
(400,530,l),
(318,522,l),
(223,414,l),
(215,381,l),
(298,426,l),
(319,415,l),
(311,370,l),
(421,315,l)
);
},
{
closed = 1;
nodes = (
(222,0,l),
(250,114,l),
(200,150,l),
(245,340,l),
(265,426,l),
(144,478,l),
(86,416,l),
(26,101,l),
(-10,42,l),
(4,-4,l)
);
},
{
closed = 1;
nodes = (
(297,293,l),
(376,255,l),
(401,286,l),
(421,315,l),
(311,370,l)
);
}
);
width = 477;
}
);
unicode = 114;
},
{
glyphname = s;
kernLeft = s;
kernRight = s;
lastChange = "2024-05-20 10:58:49 +0000";
layers = (
{
anchors = (
{
name = bottom;
pos = (211,35);
},
{
name = top;
pos = (288,538);
}
);
layerId = m01;
shapes = (
{
closed = 1;
nodes = (
(116,182,l),
(192,224,l),
(214,401,l),
(233,489,l),
(61,443,l),
(11,189,l)
);
},
{
closed = 1;
nodes = (
(369,8,l),
(224,59,l),
(147,172,l),
(-17,70,l),
(-30,8,l),
(68,-10,l)
);
},
{
closed = 1;
nodes = (
(434,257,l),
(365,322,l),
(27,253,l),
(28,247,l),
(307,205,l)
);
},
{
closed = 1;
nodes = (
(369,8,l),
(434,257,l),
(294,300,l),
(189,22,l)
);
},
{
closed = 1;
nodes = (
(438,378,l),
(496,427,l),
(470,520,l),
(192,520,l),
(122,484,l),
(142,357,l),
(310,406,l),
(327,341,l)
);
}
);
width = 463;
}
);
metricLeft = c;
unicode = 115;
},
{
glyphname = germandbls;
lastChange = "2024-06-10 10:29:36 +0000";
layers = (
{
layerId = m01;
shapes = (
{
closed = 1;
nodes = (
(236,1,l),
(247,76,l),
(208,125,l),
(289,464,l),
(211,560,l),
(189,602,l),
(131,540,l),
(45,103,l),
(9,44,l),
(23,-2,l)
);
},
{
closed = 1;
nodes = (
(266,408,l),
(272,476,l),
(213,519,l),
(96,520,l),
(47,480,l),
(76,391,l)
);
},
{
closed = 1;
nodes = (
(458,-17,l),
(555,114,l),
(584,239,l),
(473,312,l),
(376,363,l),
(284,303,l),
(288,232,l),
(333,237,l),
(467,253,l),
(471,217,l),
(408,130,l),
(343,179,l),
(281,198,l),
(245,123,l),
(320,0,l)
);
},
{
closed = 1;
nodes = (
(458,361,l),
(528,406,l),
(539,530,l),
(415,618,l),
(240,594,l),
(252,538,l),
(370,522,l),
(394,520,l),
(428,507,l),
(365,420,l),
(328,374,l),
(284,303,l)
);
},
{
closed = 1;
nodes = (
(415,618,l),
(259,658,l),
(167,630,l),
(131,540,l),
(223,520,l),
(370,522,l)
);
}
);
width = 603;
}
);
unicode = 223;
},
{
glyphname = t;
lastChange = "2024-05-20 10:14:56 +0000";
layers = (
{
anchors = (
{
name = bottom;
pos = (169,66);
},
{
name = center;
pos = (186,260);
},
{
name = top;
pos = (236,683);
},
{
name = topright;
pos = (462,714);
}
);
layerId = m01;
shapes = (
{
closed = 1;
nodes = (
(113,98,l),
(243,214,l),
(326,578,l),
(296,634,l),
(200,665,l),
(148,628,l),
(27,102,l),
(59,39,l)
);
},
{
closed = 1;
nodes = (
(242,14,l),
(225,122,l),
(142,145,l),
(27,102,l),
(25,11,l),
(105,-16,l)
);
},
{
closed = 1;
nodes = (
(259,18,l),
(317,156,l),
(259,170,l),
(179,115,l),
(201,93,l),
(214,11,l)
);
},
{
closed = 1;
nodes = (
(360,402,l),
(419,488,l),
(360,531,l),
(100,520,l),
(63,490,l),
(73,393,l)
);
}
);
width = 384;
}
);
unicode = 116;
},
{
glyphname = u;
kernLeft = a;
kernRight = ar;
lastChange = "2024-05-20 10:38:39 +0000";
layers = (
{
anchors = (
{
name = bottom;
pos = (279,26);
},
{
name = ogonek;
pos = (418,8);
},
{
name = top;
pos = (312,543);
},
{
name = topright;
pos = (564,520);
}
);
layerId = m01;
shapes = (
{
closed = 1;
nodes = (
(469,0,l),
(494,77,l),
(477,112,l),
(441,124,l),
(496,377,l),
(535,412,l),
(549,478,l),
(503,528,l),
(291,495,l),
(278,423,l),
(322,362,l),
(276,154,l),
(237,0,l)
);
},
{
closed = 1;
nodes = (
(170,1,l),
(273,112,l),
(280,145,l),
(189,98,l),
(168,108,l),
(214,386,l),
(254,512,l),
(117,511,l),
(71,477,l),
(41,438,l),
(54,360,l),
(-33,14,l),
(86,-6,l)
);
}
);
width = 553;
}
);
metricLeft = a;
unicode = 117;
},
{
glyphname = v;
kernLeft = v;
kernRight = v;
lastChange = "2024-05-20 12:49:03 +0000";
layers = (
{
layerId = m01;
shapes = (
{
closed = 1;
nodes = (
(295,-7,l),
(236,487,l),
(147,502,l),
(47,434,l),
(93,343,l),
(88,35,l),
(195,-7,l)
);
},
{
closed = 1;
nodes = (
(289,395,l),
(316,491,l),
(227,520,l),
(147,502,l),
(93,343,l)
);
},
{
closed = 1;
nodes = (
(372,46,l),
(531,386,l),
(580,487,l),
(511,512,l),
(415,498,l),
(318,290,l),
(262,70,l),
(253,18,l)
);
}
);
width = 532;
}
);
unicode = 118;
},
{
glyphname = w;
kernLeft = v;
kernRight = v;
lastChange = "2024-05-20 09:19:14 +0000";
layers = (
{
anchors = (
{
name = bottom;
pos = (386,0);
},
{
name = top;
pos = (501,541);
}
);
layerId = m01;
shapes = (
{
closed = 1;
nodes = (
(316,0,l),
(344,47,l),
(286,47,l),
(236,487,l),
(93,520,l),
(47,434,l),
(93,343,l),
(86,26,l),
(157,0,l)
);
},
{
closed = 1;
nodes = (
(289,395,l),
(316,491,l),
(227,520,l),
(93,520,l),
(93,343,l)
);
},
{
closed = 1;
nodes = (
(369,36,l),
(531,386,l),
(580,487,l),
(511,512,l),
(415,498,l),
(355,331,l),
(260,61,l),
(250,8,l)
);
},
{
closed = 1;
nodes = (
(639,0,l),
(680,47,l),
(628,33,l),
(576,487,l),
(509,507,l),
(518,150,l),
(539,0,l)
);
},
{
closed = 1;
nodes = (
(709,36,l),
(871,386,l),
(920,487,l),
(867,519,l),
(765,520,l),
(658,290,l),
(600,61,l),
(590,8,l)
);
}
);
width = 872;
}
);
metricLeft = v;
unicode = 119;
},
{
glyphname = x;
kernLeft = a;
lastChange = "2024-05-20 12:39:12 +0000";
layers = (
{
layerId = m01;
shapes = (
{
closed = 1;
nodes = (
(376,0,l),
(416,93,l),
(308,276,l),
(379,279,l),
(465,342,l),
(517,487,l),
(503,520,l),
(409,520,l),
(347,500,l),
(273,329,l),
(221,405,l),
(251,448,l),
(223,520,l),
(84,520,l),
(59,484,l),
(28,377,l),
(125,226,l),
(52,203,l),
(-20,126,l),
(-46,31,l),
(-14,0,l),
(113,0,l),
(147,122,l),
(153,189,l),
(216,84,l),
(201,31,l),
(226,0,l)
);
}
);
width = 497;
}
);
metricLeft = a;
metricRight = a;
unicode = 120;
},
{
glyphname = y;
kernLeft = v;
kernRight = v;
lastChange = "2024-05-20 12:48:59 +0000";
layers = (
{
anchors = (
{
name = bottom;
pos = (217,0);
},
{
name = top;
pos = (357,520);
}
);
layerId = m01;
shapes = (
{
closed = 1;
nodes = (
(293,-17,l),
(236,487,l),
(100,512,l),
(47,434,l),
(93,343,l),
(86,26,l),
(193,-17,l)
);
},
{
closed = 1;
nodes = (
(151,-225,l),
(299,-102,l),
(369,36,l),
(285,93,l),
(213,50,l),
(169,-142,l),
(61,-76,l),
(-33,-154,l),
(1,-243,l)
);
},
{
closed = 1;
nodes = (
(289,395,l),
(316,491,l),
(227,520,l),
(100,512,l),
(93,343,l)
);
},
{
closed = 1;
nodes = (
(369,36,l),
(531,386,l),
(580,487,l),
(511,512,l),
(415,498,l),
(318,290,l),
(260,61,l),
(250,8,l)
);
}
);
width = 532;
}
);
metricRight = v;
unicode = 121;
},
{
glyphname = z;
kernLeft = a;
lastChange = "2024-05-09 12:36:32 +0000";
layers = (
{
anchors = (
{
name = bottom;
pos = (168,0);
},
{
name = center;
pos = (223,260);
},
{
name = top;
pos = (315,533);
}
);
layerId = m01;
shapes = (
{
closed = 1;
nodes = (
(226,175,l),
(476,336,l),
(503,394,l),
(456,411,l),
(331,389,l),
(-23,140,l),
(-21,41,l),
(117,20,l)
);
},
{
closed = 1;
nodes = (
(363,1,l),
(407,61,l),
(139,118,l),
(-9,103,l),
(-51,-2,l)
);
},
{
closed = 1;
nodes = (
(432,21,l),
(492,215,l),
(443,224,l),
(383,238,l),
(298,149,l),
(262,8,l)
);
},
{
closed = 1;
nodes = (
(208,375,l),
(239,434,l),
(292,520,l),
(69,498,l),
(33,383,l),
(32,321,l)
);
},
{
closed = 1;
nodes = (
(518,480,l),
(512,519,l),
(300,501,l),
(142,420,l),
(503,394,l)
);
},
{
closed = 1;
nodes = (
(431,473,l),
(512,519,l),
(188,530,l),
(150,466,l)
);
}
);
width = 530;
}
);
metricLeft = a;
metricRight = a;
unicode = 122;
},
{
glyphname = ae.001;
kernLeft = a;
lastChange = "2024-05-20 10:08:07 +0000";
layers = (
{
anchors = (
{
name = top;
pos = (467,549);
}
);
layerId = m01;
shapes = (
{
closed = 1;
nodes = (
(170,2,l),
(281,60,l),
(312,169,l),
(222,145,l),
(148,126,l),
(108,182,l),
(128,218,l),
(255,202,l),
(298,198,l),
(333,269,l),
(266,329,l),
(147,278,l),
(6,205,l),
(-21,112,l),
(14,0,l)
);
},
{
closed = 1;
nodes = (
(178,330,l),
(235,356,l),
(227,383,l),
(235,444,l),
(254,531,l),
(99,516,l),
(49,475,l),
(59,319,l),
(100,292,l)
);
},
{
closed = 1;
nodes = (
(406,0,l),
(468,110,l),
(419,146,l),
(496,475,l),
(354,486,l),
(332,417,l),
(268,105,l),
(232,46,l),
(246,0,l)
);
},
{
closed = 1;
nodes = (
(475,454,l),
(471,513,l),
(394,528,l),
(152,504,l),
(113,430,l),
(241,405,l),
(380,385,l)
);
},
{
closed = 1;
nodes = (
(705,264,l),
(772,301,l),
(813,425,l),
(767,530,l),
(612,527,l),
(531,506,l),
(457,401,l),
(479,330,l),
(662,425,l),
(670,338,l),
(657,317,l),
(522,303,l),
(479,308,l),
(445,237,l),
(553,192,l)
);
},
{
closed = 1;
nodes = (
(528,57,l),
(675,127,l),
(554,103,l),
(415,123,l),
(303,110,l),
(277,108,l),
(246,0,l)
);
},
{
closed = 1;
nodes = (
(459,70,l),
(416,118,l),
(509,401,l),
(546,460,l),
(531,506,l),
(350,422,l),
(312,316,l),
(273,86,l),
(419,37,l)
);
},
{
closed = 1;
nodes = (
(702,29,l),
(747,33,l),
(736,189,l),
(673,226,l),
(595,178,l),
(595,132,l),
(509,91,l),
(496,28,l),
(504,0,l)
);
},
{
closed = 1;
nodes = (
(608,454,l),
(612,527,l),
(414,489,l),
(383,407,l)
);
}
);
width = 809;
}
);
metricLeft = a;
metricRight = e;
},
{
glyphname = c.001;
kernLeft = c;
lastChange = "2024-05-20 10:49:14 +0000";
layers = (
{
anchors = (
{
name = bottom;
pos = (234,59);
},
{
name = top;
pos = (272,520);
}
);
layerId = m01;
shapes = (
{
closed = 1;
nodes = (
(126,11,l),
(207,76,l),
(168,305,l),
(267,439,l),
(211,471,l),
(90,491,l),
(21,254,l),
(21,7,l)
);
},
{
closed = 1;
nodes = (
(204,-1,l),
(345,7,l),
(350,81,l),
(336,137,l),
(61,93,l),
(109,-6,l)
);
},
{
closed = 1;
nodes = (
(388,24,l),
(422,185,l),
(365,196,l),
(299,165,l),
(267,93,l),
(302,-10,l)
);
},
{
closed = 1;
nodes = (
(436,426,l),
(473,514,l),
(360,521,l),
(267,526,l),
(90,491,l),
(206,399,l)
);
},
{
closed = 1;
nodes = (
(448,326,l),
(464,402,l),
(473,514,l),
(363,489,l),
(310,446,l),
(327,356,l),
(368,326,l)
);
}
);
width = 466;
}
);
},
{
glyphname = e.001;
kernLeft = c;
lastChange = "2024-05-11 17:21:00 +0000";
layers = (
{
anchors = (
{
name = bottom;
pos = (202,0);
},
{
name = ogonek;
pos = (420,8);
},
{
name = top;
pos = (337,542);
}
);
layerId = m01;
shapes = (
{
closed = 1;
nodes = (
(215,25,l),
(254,2,l),
(425,5,l),
(473,136,l),
(458,146,l),
(415,172,l),
(323,136,l),
(266,112,l),
(161,101,l),
(196,241,l),
(492,252,l),
(540,504,l),
(478,518,l),
(302,520,l),
(144,504,l),
(37,316,l),
(-13,69,l),
(70,-3,l)
);
},
{
closed = 1;
nodes = (
(219,338,l),
(379,422,l),
(351,282,l),
(206,282,l)
);
}
);
width = 537;
}
);
},
{
glyphname = e.002;
kernLeft = c;
lastChange = "2024-05-11 08:57:58 +0000";
layers = (
{
anchors = (
{
name = bottom;
pos = (202,0);
},
{
name = ogonek;
pos = (420,8);
},
{
name = top;
pos = (337,542);
}
);
layerId = m01;
shapes = (
{
closed = 1;
nodes = (
(519,265,l),
(540,504,l),
(492,530,l),
(316,532,l),
(257,506,l),
(182,401,l),
(204,330,l),
(379,422,l),
(386,335,l),
(378,295,l),
(188,282,l),
(168,257,l),
(282,155,l)
);
},
{
closed = 1;
nodes = (
(361,54,l),
(401,127,l),
(161,101,l),
(235,401,l),
(272,460,l),
(257,506,l),
(80,437,l),
(37,316,l),
(-13,69,l),
(70,-3,l)
);
},
{
closed = 1;
nodes = (
(333,454,l),
(316,532,l),
(144,504,l),
(113,422,l)
);
},
{
closed = 1;
nodes = (
(415,172,l),
(323,136,l),
(195,83,l),
(256,99,l),
(188,42,l),
(254,2,l),
(374,4,l),
(425,5,l),
(473,136,l),
(458,146,l)
);
}
);
width = 537;
}
);
},
{
glyphname = o.001;
kernLeft = c;
kernRight = o;
lastChange = "2024-05-09 12:25:26 +0000";
layers = (
{
anchors = (
{
name = bottom;
pos = (157,0);
},
{
name = center;
pos = (212,260);
},
{
name = ogonek;
pos = (352,8);
},
{
name = top;
pos = (307,549);
},
{
name = topright;
pos = (493,520);
}
);
layerId = m01;
shapes = (
{
closed = 1;
nodes = (
(470,334,l),
(480,495,l),
(435,520,l),
(349,509,l),
(311,210,l),
(221,104,l),
(250,70,l),
(370,6,l)
);
},
{
closed = 1;
nodes = (
(370,6,l),
(375,79,l),
(352,113,l),
(36,86,l),
(65,-12,l)
);
},
{
closed = 1;
nodes = (
(110,26,l),
(191,86,l),
(170,270,l),
(215,418,l),
(178,469,l),
(126,452,l),
(42,354,l),
(19,210,l),
(-2,14,l)
);
},
{
closed = 1;
nodes = (
(414,419,l),
(435,520,l),
(234,524,l),
(128,504,l),
(56,417,l),
(76,382,l),
(174,397,l)
);
}
);
width = 490;
}
);
metricLeft = c;
metricRight = b;
},
{
glyphname = oe.001;
kernLeft = c;
lastChange = "2024-05-20 10:11:40 +0000";
layers = (
{
anchors = (
{
name = bottom;
pos = (486,0);
},
{
name = center;
pos = (212,260);
},
{
name = ogonek;
pos = (704,8);
},
{
name = top;
pos = (621,542);
},
{
name = topright;
pos = (493,520);
}
);
layerId = m01;
shapes = (
{
closed = 1;
nodes = (
(470,334,l),
(488,504,l),
(443,529,l),
(356,515,l),
(310,318,l),
(253,94,l),
(245,55,l),
(390,17,l)
);
},
{
closed = 1;
nodes = (
(185,0,l),
(390,17,l),
(369,88,l),
(357,145,l),
(42,94,l),
(61,-26,l)
);
},
{
closed = 1;
nodes = (
(105,12,l),
(188,77,l),
(117,160,l),
(223,458,l),
(178,469,l),
(126,452,l),
(42,354,l),
(14,196,l),
(-7,0,l)
);
},
{
closed = 1;
nodes = (
(422,428,l),
(443,529,l),
(234,524,l),
(128,504,l),
(56,417,l),
(174,397,l)
);
},
{
closed = 1;
nodes = (
(714,264,l),
(780,301,l),
(821,425,l),
(775,530,l),
(621,527,l),
(540,506,l),
(465,401,l),
(488,330,l),
(671,425,l),
(679,338,l),
(666,317,l),
(531,303,l),
(463,354,l),
(429,283,l),
(561,192,l)
);
},
{
closed = 1;
nodes = (
(645,54,l),
(684,127,l),
(563,103,l),
(424,123,l),
(312,110,l),
(286,108,l),
(418,-22,l)
);
},
{
closed = 1;
nodes = (
(468,70,l),
(418,115,l),
(511,398,l),
(555,460,l),
(540,506,l),
(359,422,l),
(321,316,l),
(281,86,l),
(446,0,l)
);
},
{
closed = 1;
nodes = (
(711,29,l),
(755,33,l),
(745,189,l),
(682,226,l),
(604,178,l),
(603,132,l),
(518,91,l),
(505,28,l),
(515,-6,l)
);
},
{
closed = 1;
nodes = (
(616,454,l),
(621,527,l),
(423,489,l),
(392,407,l)
);
}
);
width = 817;
}
);
metricLeft = o;
metricRight = e;
},
{
glyphname = e.ss01;
lastChange = "2024-05-20 10:08:07 +0000";
layers = (
{
layerId = m01;
shapes = (
{
closed = 1;
nodes = (
(383,0,l),
(443,135,l),
(148,53,l),
(178,153,l),
(480,228,l),
(527,383,l),
(443,521,l),
(347,519,l),
(346,520,l),
(163,520,l),
(64,457,l),
(6,186,l),
(65,0,l)
);
},
{
closed = 1;
nodes = (
(256,404,l),
(376,403,l),
(327,326,l),
(203,218,l),
(192,220,l)
);
},
{
closed = 1;
nodes = (
(220,65,l),
(359,16,l),
(383,0,l),
(456,170,l),
(428,192,l),
(252,131,l)
);
}
);
width = 515;
}
);
metricLeft = e;
metricRight = e;
},
{
glyphname = h.ss01;
kernLeft = h;
kernRight = n;
lastChange = "2024-05-09 16:12:50 +0000";
layers = (
{
anchors = (
{
name = bottom;
pos = (210,0);
},
{
name = center;
pos = (194,571);
},
{
name = top;
pos = (224,699);
}
);
layerId = m01;
shapes = (
{
closed = 1;
nodes = (
(211,2,l),
(232,90,l),
(197,143,l),
(282,520,l),
(303,606,l),
(181,658,l),
(123,596,l),
(24,105,l),
(-13,45,l),
(1,0,l)
);
},
{
closed = 1;
nodes = (
(353,-82,l),
(433,0,l),
(444,60,l),
(506,388,l),
(553,508,l),
(433,528,l),
(350,521,l),
(256,413,l),
(247,379,l),
(331,424,l),
(353,414,l),
(325,258,l),
(283,29,l),
(267,-48,l),
(260,-81,l)
);
},
{
closed = 1;
nodes = (
(303,606,l),
(319,683,l),
(214,713,l),
(123,686,l),
(86,595,l),
(159,584,l)
);
}
);
width = 524;
}
);
metricLeft = h;
metricRight = n;
},
{
glyphname = s.ss01;
kernLeft = s;
kernRight = s;
lastChange = "2024-05-10 16:50:54 +0000";
layers = (
{
anchors = (
{
name = bottom;
pos = (201,35);
},
{
name = top;
pos = (278,538);
}
);
layerId = m01;
shapes = (
{
closed = 1;
nodes = (
(112,204,l),
(181,247,l),
(223,457,l),
(241,528,l),
(69,482,l),
(11,204,l)
);
},
{
closed = 1;
nodes = (
(366,69,l),
(231,69,l),
(136,185,l),
(7,114,l),
(65,0,l),
(169,-3,l)
);
},
{
closed = 1;
nodes = (
(431,277,l),
(362,342,l),
(28,268,l),
(28,262,l),
(304,225,l)
);
},
{
closed = 1;
nodes = (
(360,21,l),
(431,277,l),
(278,325,l),
(191,53,l)
);
},
{
closed = 1;
nodes = (
(435,398,l),
(493,447,l),
(491,520,l),
(316,530,l),
(131,523,l),
(157,412,l),
(307,426,l),
(324,361,l)
);
}
);
width = 455;
}
);
metricLeft = s;
metricRight = s;
},
{
glyphname = z.ss01;
lastChange = "2024-05-20 09:19:14 +0000";
layers = (
{
layerId = m01;
shapes = (
{
closed = 1;
nodes = (
(236,185,l),
(446,309,l),
(465,394,l),
(418,411,l),
(293,389,l),
(1,189,l),
(43,106,l),
(107,83,l)
);
},
{
closed = 1;
nodes = (
(33,-240,l),
(123,-295,l),
(123,-209,l),
(165,-142,l),
(422,60,l),
(343,131,l),
(238,207,l),
(206,318,l),
(58,222,l),
(96,166,l),
(168,186,l),
(208,152,l),
(241,127,l),
(68,-9,l),
(27,-63,l)
);
},
{
closed = 1;
nodes = (
(202,365,l),
(233,424,l),
(286,510,l),
(63,488,l),
(27,373,l),
(26,311,l)
);
},
{
closed = 1;
nodes = (
(480,480,l),
(474,519,l),
(294,491,l),
(136,410,l),
(465,394,l)
);
},
{
closed = 1;
nodes = (
(393,473,l),
(474,519,l),
(182,520,l),
(144,456,l)
);
}
);
width = 493;
}
);
metricLeft = z;
metricRight = z;
},
{
glyphname = x.001;
kernLeft = a;
lastChange = "2024-05-09 11:26:50 +0000";
layers = (
{
layerId = m01;
shapes = (
{
closed = 1;
nodes = (
(367,6,l),
(405,81,l),
(353,196,l),
(248,379,l),
(246,498,l),
(184,536,l),
(63,450,l),
(38,389,l),
(241,22,l),
(299,-14,l)
);
},
{
closed = 1;
nodes = (
(103,45,l),
(128,88,l),
(190,234,l),
(53,212,l),
(-23,138,l),
(-36,39,l),
(-26,6,l),
(16,-22,l)
);
},
{
closed = 1;
nodes = (
(265,386,l),
(246,498,l),
(184,536,l),
(101,496,l),
(102,442,l),
(208,282,l)
);
},
{
closed = 1;
nodes = (
(411,273,l),
(469,330,l),
(528,474,l),
(519,508,l),
(477,536,l),
(312,444,l),
(284,254,l)
);
}
);
width = 511;
}
);
metricLeft = a;
metricRight = a;
},
{
glyphname = zero;
lastChange = "2024-05-20 10:19:20 +0000";
layers = (
{
layerId = m01;
shapes = (
{
closed = 1;
nodes = (
(399,97,l),
(293,31,l),
(255,97,l),
(144,92,l),
(152,126,l),
(190,256,l),
(94,284,l),
(51,361,l),
(-2,110,l),
(49,1,l),
(325,0,l)
);
},
{
closed = 1;
nodes = (
(141,195,l),
(190,256,l),
(269,473,l),
(122,482,l),
(51,361,l),
(88,174,l)
);
},
{
closed = 1;
nodes = (
(515,242,l),
(454,247,l),
(354,247,l),
(280,31,l),
(399,11,l)
);
},
{
closed = 1;
nodes = (
(515,242,l),
(551,402,l),
(513,520,l),
(207,520,l),
(155,386,l),
(324,395,l),
(350,386,l),
(354,247,l),
(348,228,l),
(411,219,l)
);
}
);
width = 538;
}
);
unicode = 48;
},
{
glyphname = one;
lastChange = "2024-05-10 20:45:01 +0000";
layers = (
{
layerId = m01;
shapes = (
{
closed = 1;
nodes = (
(185,0,l),
(226,67,l),
(313,359,l),
(344,488,l),
(163,423,l),
(79,30,l)
);
},
{
closed = 1;
nodes = (
(251,0,l),
(298,88,l),
(229,171,l),
(120,171,l),
(26,94,l),
(33,0,l)
);
},
{
closed = 1;
nodes = (
(313,359,l),
(354,513,l),
(264,542,l),
(120,473,l),
(75,396,l),
(73,355,l)
);
}
);
width = 345;
}
);
unicode = 49;
},
{
glyphname = two;
lastChange = "2024-05-11 17:14:02 +0000";
layers = (
{
layerId = m01;
shapes = (
{
closed = 1;
nodes = (
(181,57,l),
(241,189,l),
(395,231,l),
(533,333,l),
(571,450,l),
(553,472,l),
(511,520,l),
(357,494,l),
(188,401,l),
(411,366,l),
(386,335,l),
(328,276,l),
(54,180,l),
(37,146,l),
(6,0,l)
);
},
{
closed = 1;
nodes = (
(418,2,l),
(440,33,l),
(333,51,l),
(128,174,l),
(47,103,l),
(6,0,l)
);
},
{
closed = 1;
nodes = (
(156,259,l),
(252,314,l),
(357,494,l),
(104,432,l),
(84,375,l),
(84,301,l)
);
},
{
closed = 1;
nodes = (
(477,38,l),
(532,215,l),
(483,224,l),
(430,224,l),
(305,153,l),
(306,23,l)
);
},
{
closed = 1;
nodes = (
(462,457,l),
(511,520,l),
(235,519,l),
(171,444,l)
);
}
);
width = 560;
}
);
unicode = 50;
},
{
glyphname = three;
lastChange = "2024-05-11 17:15:47 +0000";
layers = (
{
layerId = m01;
shapes = (
{
closed = 1;
nodes = (
(403,179,l),
(590,369,l),
(544,518,l),
(340,518,l),
(247,475,l),
(264,452,l),
(379,382,l),
(305,114,l)
);
},
{
closed = 1;
nodes = (
(111,-8,l),
(189,48,l),
(137,113,l),
(100,137,l),
(11,131,l),
(-25,-91,l)
);
},
{
closed = 1;
nodes = (
(366,-101,l),
(100,48,l),
(-25,-91,l),
(47,-102,l)
);
},
{
closed = 1;
nodes = (
(501,134,l),
(403,179,l),
(305,114,l),
(230,-36,l),
(366,-101,l)
);
},
{
closed = 1;
nodes = (
(352,265,l),
(231,202,l),
(203,144,l),
(317,156,l)
);
},
{
closed = 1;
nodes = (
(218,290,l),
(265,424,l),
(392,346,l),
(527,489,l),
(210,489,l),
(38,335,l),
(39,268,l)
);
}
);
width = 579;
}
);
unicode = 51;
},
{
glyphname = four;
lastChange = "2024-05-20 10:23:04 +0000";
layers = (
{
layerId = m01;
shapes = (
{
closed = 1;
nodes = (
(450,-1,l),
(503,88,l),
(504,152,l),
(257,88,l),
(116,55,l),
(154,104,l),
(516,472,l),
(465,521,l),
(365,499,l),
(15,143,l),
(-3,0,l)
);
},
{
closed = 1;
nodes = (
(465,521,l),
(375,407,l),
(274,8,l),
(212,-85,l),
(260,-136,l),
(392,-136,l),
(495,270,l),
(507,317,l),
(517,356,l),
(555,492,l)
);
}
);
width = 565;
}
);
unicode = 52;
},
{
glyphname = five;
lastChange = "2024-05-20 10:19:45 +0000";
layers = (
{
layerId = m01;
shapes = (
{
closed = 1;
nodes = (
(351,178,l),
(310,33,l),
(236,-59,l),
(184,64,l),
(86,46,l),
(11,-48,l),
(152,-144,l),
(310,-100,l),
(405,-58,l),
(472,-25,l),
(545,160,l),
(410,266,l),
(179,201,l),
(229,342,l),
(410,369,l),
(436,299,l),
(564,314,l),
(602,459,l),
(573,520,l),
(464,520,l),
(415,489,l),
(397,520,l),
(132,482,l),
(51,165,l),
(146,118,l)
);
}
);
width = 586;
}
);
unicode = 53;
},
{
glyphname = six;
lastChange = "2024-05-10 22:08:07 +0000";
layers = (
{
layerId = m01;
shapes = (
{
closed = 1;
nodes = (
(148,0,l),
(254,483,l),
(316,503,l),
(393,505,l),
(417,444,l),
(539,425,l),
(601,572,l),
(545,629,l),
(401,639,l),
(254,618,l),
(98,436,l),
(30,136,l),
(72,0,l)
);
},
{
closed = 1;
nodes = (
(277,0,l),
(409,41,l),
(306,68,l),
(80,126,l),
(70,57,l),
(104,0,l)
);
},
{
closed = 1;
nodes = (
(168,211,l),
(158,230,l),
(360,301,l),
(354,253,l),
(505,195,l),
(491,333,l),
(434,396,l),
(306,425,l),
(170,243,l),
(70,297,l),
(56,262,l),
(75,224,l)
);
},
{
closed = 1;
nodes = (
(505,195,l),
(463,324,l),
(360,301,l),
(290,61,l),
(409,41,l)
);
}
);
width = 550;
}
);
unicode = 54;
},
{
glyphname = seven;
lastChange = "2024-05-20 10:19:12 +0000";
layers = (
{
layerId = m01;
shapes = (
{
closed = 1;
nodes = (
(101,-145,l),
(214,-143,l),
(256,-120,l),
(367,86,l),
(412,86,l),
(459,135,l),
(459,227,l),
(395,227,l),
(460,264,l),
(531,391,l),
(496,520,l),
(272,523,l),
(272,466,l),
(396,428,l),
(309,274,l),
(281,231,l),
(183,226,l),
(110,118,l),
(122,83,l),
(201,84,l),
(191,67,l),
(91,-109,l)
);
},
{
closed = 1;
nodes = (
(183,287,l),
(209,310,l),
(328,503,l),
(272,523,l),
(196,520,l),
(187,493,l),
(129,494,l),
(53,298,l)
);
}
);
width = 520;
}
);
unicode = 55;
},
{
glyphname = eight;
lastChange = "2024-05-20 10:23:38 +0000";
layers = (
{
layerId = m01;
shapes = (
{
closed = 1;
nodes = (
(429,97,l),
(146,107,l),
(192,227,l),
(285,269,l),
(232,333,l),
(22,229,l),
(-2,110,l),
(49,1,l),
(355,0,l)
);
},
{
closed = 1;
nodes = (
(182,325,l),
(231,386,l),
(293,548,l),
(146,557,l),
(55,385,l),
(129,304,l)
);
},
{
closed = 1;
nodes = (
(490,292,l),
(181,410,l),
(129,304,l),
(387,200,l)
);
},
{
closed = 1;
nodes = (
(532,163,l),
(490,292,l),
(366,213,l),
(310,31,l),
(429,11,l)
);
},
{
closed = 1;
nodes = (
(538,354,l),
(605,477,l),
(567,595,l),
(231,595,l),
(179,461,l),
(399,470,l),
(425,461,l),
(398,359,l),
(267,331,l),
(329,304,l)
);
}
);
width = 562;
}
);
unicode = 56;
},
{
glyphname = nine;
lastChange = "2024-05-20 10:18:52 +0000";
layers = (
{
layerId = m01;
shapes = (
{
closed = 1;
nodes = (
(223,-160,l),
(265,-39,l),
(196,-88,l),
(104,38,l),
(-10,10,l),
(-40,-35,l),
(-3,-160,l)
);
},
{
closed = 1;
nodes = (
(178,174,l),
(211,446,l),
(100,505,l),
(16,224,l),
(16,114,l)
);
},
{
closed = 1;
nodes = (
(219,49,l),
(338,211,l),
(401,257,l),
(384,295,l),
(241,198,l),
(63,181,l),
(18,114,l)
);
},
{
closed = 1;
nodes = (
(495,480,l),
(338,527,l),
(100,505,l),
(198,436,l),
(421,370,l)
);
},
{
closed = 1;
nodes = (
(500,519,l),
(392,506,l),
(294,69,l),
(265,-39,l),
(91,-110,l),
(223,-160,l),
(404,-35,l),
(431,37,l),
(546,486,l)
);
}
);
width = 502;
}
);
unicode = 57;
},
{
glyphname = zero.001;
lastChange = "2024-05-10 19:08:32 +0000";
layers = (
{
layerId = m01;
shapes = (
{
closed = 1;
nodes = (
(399,97,l),
(100,97,l),
(152,126,l),
(239,436,l),
(143,464,l),
(100,541,l),
(-2,110,l),
(49,1,l),
(325,0,l)
);
},
{
closed = 1;
nodes = (
(190,375,l),
(239,436,l),
(318,653,l),
(171,662,l),
(100,541,l),
(137,354,l)
);
},
{
closed = 1;
nodes = (
(564,422,l),
(503,427,l),
(424,427,l),
(280,31,l),
(399,11,l)
);
},
{
closed = 1;
nodes = (
(564,422,l),
(600,582,l),
(562,700,l),
(256,700,l),
(204,566,l),
(394,575,l),
(420,566,l),
(424,427,l),
(369,228,l),
(411,219,l)
);
}
);
width = 538;
}
);
},
{
glyphname = one.001;
lastChange = "2024-05-10 18:36:47 +0000";
layers = (
{
layerId = m01;
shapes = (
{
closed = 1;
nodes = (
(185,0,l),
(226,67,l),
(360,533,l),
(391,662,l),
(210,597,l),
(79,30,l)
);
},
{
closed = 1;
nodes = (
(251,0,l),
(298,88,l),
(229,171,l),
(120,171,l),
(26,94,l),
(33,0,l)
);
},
{
closed = 1;
nodes = (
(360,533,l),
(401,687,l),
(311,716,l),
(167,647,l),
(122,570,l),
(120,529,l)
);
}
);
width = 345;
}
);
},
{
glyphname = two.001;
lastChange = "2024-05-10 19:25:09 +0000";
layers = (
{
layerId = m01;
shapes = (
{
closed = 1;
nodes = (
(181,57,l),
(241,189,l),
(558,366,l),
(603,535,l),
(552,670,l),
(392,401,l),
(59,210,l),
(37,146,l),
(6,0,l)
);
},
{
closed = 1;
nodes = (
(418,2,l),
(440,33,l),
(333,51,l),
(128,174,l),
(47,103,l),
(6,0,l)
);
},
{
closed = 1;
nodes = (
(197,440,l),
(293,495,l),
(398,675,l),
(145,613,l),
(125,556,l),
(69,386,l)
);
},
{
closed = 1;
nodes = (
(477,38,l),
(532,215,l),
(483,224,l),
(430,224,l),
(305,153,l),
(306,23,l)
);
},
{
closed = 1;
nodes = (
(503,638,l),
(580,700,l),
(276,700,l),
(212,625,l)
);
},
{
closed = 1;
nodes = (
(622,652,l),
(580,700,l),
(398,675,l),
(235,592,l),
(603,535,l)
);
}
);
width = 560;
}
);
},
{
glyphname = three.001;
lastChange = "2024-05-10 19:23:31 +0000";
layers = (
{
layerId = m01;
shapes = (
{
closed = 1;
nodes = (
(450,361,l),
(637,551,l),
(591,700,l),
(387,700,l),
(294,657,l),
(311,634,l),
(426,564,l),
(352,296,l)
);
},
{
closed = 1;
nodes = (
(158,94,l),
(236,177,l),
(184,242,l),
(147,266,l),
(58,260,l),
(22,64,l)
);
},
{
closed = 1;
nodes = (
(413,1,l),
(147,150,l),
(22,64,l),
(94,0,l)
);
},
{
closed = 1;
nodes = (
(548,263,l),
(450,361,l),
(352,296,l),
(277,66,l),
(413,1,l)
);
},
{
closed = 1;
nodes = (
(399,447,l),
(278,384,l),
(250,326,l),
(364,285,l)
);
},
{
closed = 1;
nodes = (
(265,472,l),
(312,606,l),
(439,528,l),
(574,671,l),
(257,671,l),
(85,517,l),
(86,450,l)
);
}
);
width = 579;
}
);
},
{
glyphname = four.001;
lastChange = "2024-05-10 18:38:26 +0000";
layers = (
{
layerId = m01;
shapes = (
{
closed = 1;
nodes = (
(465,182,l),
(518,271,l),
(519,335,l),
(131,238,l),
(169,287,l),
(552,655,l),
(501,704,l),
(401,682,l),
(30,326,l),
(36,137,l)
);
},
{
closed = 1;
nodes = (
(501,704,l),
(411,590,l),
(273,144,l),
(211,51,l),
(259,0,l),
(391,0,l),
(522,500,l),
(591,675,l)
);
}
);
width = 523;
}
);
},
{
glyphname = five.001;
lastChange = "2024-05-20 10:18:11 +0000";
layers = (
{
layerId = m01;
shapes = (
{
closed = 1;
nodes = (
(367,312,l),
(431,260,l),
(479,307,l),
(558,408,l),
(458,466,l),
(99,323,l),
(89,288,l),
(164,254,l)
);
},
{
closed = 1;
nodes = (
(330,0,l),
(435,21,l),
(416,170,l),
(194,78,l),
(180,194,l),
(82,176,l),
(31,52,l),
(111,0,l)
);
},
{
closed = 1;
nodes = (
(565,277,l),
(558,408,l),
(417,337,l),
(368,42,l),
(435,21,l)
);
},
{
closed = 1;
nodes = (
(214,335,l),
(256,505,l),
(473,670,l),
(415,711,l),
(171,661,l),
(99,323,l)
);
},
{
closed = 1;
nodes = (
(452,565,l),
(451,513,l),
(619,536,l),
(650,582,l),
(626,715,l),
(395,683,l),
(237,537,l)
);
}
);
width = 606;
}
);
},
{
glyphname = six.001;
lastChange = "2024-05-10 19:22:46 +0000";
layers = (
{
layerId = m01;
shapes = (
{
closed = 1;
nodes = (
(190,0,l),
(300,569,l),
(607,700,l),
(414,700,l),
(163,622,l),
(72,136,l),
(49,77,l),
(73,0,l)
);
},
{
closed = 1;
nodes = (
(319,0,l),
(451,41,l),
(348,68,l),
(122,126,l),
(84,49,l),
(87,0,l)
);
},
{
closed = 1;
nodes = (
(223,272,l),
(250,358,l),
(336,339,l),
(378,330,l),
(415,362,l),
(409,314,l),
(560,256,l),
(546,394,l),
(489,457,l),
(125,358,l),
(111,323,l),
(130,285,l)
);
},
{
closed = 1;
nodes = (
(560,256,l),
(518,385,l),
(415,362,l),
(332,61,l),
(451,41,l)
);
},
{
closed = 1;
nodes = (
(466,506,l),
(620,537,l),
(650,582,l),
(607,700,l),
(395,683,l),
(300,569,l),
(458,542,l),
(452,518,l)
);
}
);
width = 582;
}
);
},
{
glyphname = seven.001;
lastChange = "2024-05-10 18:41:40 +0000";
layers = (
{
layerId = m01;
shapes = (
{
closed = 1;
nodes = (
(179,0,l),
(292,2,l),
(334,25,l),
(623,574,l),
(588,703,l),
(364,706,l),
(305,577,l),
(488,611,l),
(169,36,l)
);
},
{
closed = 1;
nodes = (
(275,470,l),
(301,493,l),
(420,686,l),
(406,721,l),
(144,673,l),
(145,481,l)
);
},
{
closed = 1;
nodes = (
(545,395,l),
(242,362,l),
(169,254,l),
(181,219,l),
(471,222,l),
(518,271,l),
(556,362,l)
);
}
);
width = 563;
}
);
},
{
glyphname = eight.001;
lastChange = "2024-05-10 19:03:21 +0000";
layers = (
{
layerId = m01;
shapes = (
{
closed = 1;
nodes = (
(429,97,l),
(146,107,l),
(200,277,l),
(293,319,l),
(240,383,l),
(30,279,l),
(-2,110,l),
(49,1,l),
(355,0,l)
);
},
{
closed = 1;
nodes = (
(190,375,l),
(239,436,l),
(318,653,l),
(171,662,l),
(63,435,l),
(137,354,l)
);
},
{
closed = 1;
nodes = (
(498,342,l),
(189,460,l),
(137,354,l),
(395,250,l)
);
},
{
closed = 1;
nodes = (
(540,213,l),
(498,342,l),
(374,263,l),
(310,31,l),
(429,11,l)
);
},
{
closed = 1;
nodes = (
(546,404,l),
(630,582,l),
(592,700,l),
(256,700,l),
(204,566,l),
(424,575,l),
(450,566,l),
(406,409,l),
(275,381,l),
(337,354,l)
);
}
);
width = 562;
}
);
},
{
glyphname = nine.001;
lastChange = "2024-05-10 18:44:05 +0000";
layers = (
{
layerId = m01;
shapes = (
{
closed = 1;
nodes = (
(252,0,l),
(294,121,l),
(225,72,l),
(133,198,l),
(19,170,l),
(-11,125,l),
(26,0,l)
);
},
{
closed = 1;
nodes = (
(211,358,l),
(244,630,l),
(133,689,l),
(49,408,l),
(49,298,l)
);
},
{
closed = 1;
nodes = (
(252,233,l),
(371,395,l),
(434,441,l),
(417,479,l),
(274,382,l),
(96,365,l),
(51,298,l)
);
},
{
closed = 1;
nodes = (
(528,664,l),
(371,711,l),
(133,689,l),
(231,620,l),
(454,554,l)
);
},
{
closed = 1;
nodes = (
(533,703,l),
(425,690,l),
(327,253,l),
(294,121,l),
(120,50,l),
(252,0,l),
(433,125,l),
(460,197,l),
(579,670,l)
);
}
);
width = 502;
}
);
},
{
glyphname = period;
kernLeft = period;
kernRight = comma;
lastChange = "2024-05-09 13:21:49 +0000";
layers = (
{
layerId = m01;
shapes = (
{
closed = 1;
nodes = (
(149,11,l),
(156,79,l),
(104,169,l),
(-6,131,l),
(-23,36,l),
(32,-14,l)
);
}
);
width = 214;
}
);
unicode = 46;
},
{
glyphname = comma;
kernLeft = a;
kernRight = comma_d;
lastChange = "2024-05-09 10:52:55 +0000";
layers = (
{
layerId = m01;
shapes = (
{
closed = 1;
nodes = (
(83,-124,l),
(149,14,l),
(26,44,l),
(26,-50,l),
(-7,-61,l),
(-63,-161,l),
(7,-206,l)
);
},
{
closed = 1;
nodes = (
(149,14,l),
(174,110,l),
(75,150,l),
(-19,57,l),
(-42,-12,l),
(70,-38,l)
);
}
);
width = 246;
}
);
unicode = 44;
},
{
glyphname = colon;
lastChange = "2024-05-09 10:52:55 +0000";
layers = (
{
layerId = m01;
shapes = (
{
closed = 1;
nodes = (
(217,335,l),
(233,429,l),
(179,480,l),
(61,454,l),
(55,387,l),
(105,297,l)
);
},
{
closed = 1;
nodes = (
(151,25,l),
(158,93,l),
(106,183,l),
(-4,145,l),
(-21,50,l),
(34,0,l)
);
}
);
width = 301;
}
);
unicode = 58;
},
{
glyphname = semicolon;
kernLeft = a;
lastChange = "2024-05-09 10:52:55 +0000";
layers = (
{
layerId = m01;
shapes = (
{
closed = 1;
nodes = (
(93,-83,l),
(155,45,l),
(36,72,l),
(38,-15,l),
(6,-24,l),
(-47,-116,l),
(21,-158,l)
);
},
{
closed = 1;
nodes = (
(155,45,l),
(178,133,l),
(82,169,l),
(-7,84,l),
(-29,21,l),
(79,-3,l)
);
},
{
closed = 1;
nodes = (
(217,299,l),
(224,370,l),
(172,465,l),
(55,425,l),
(33,299,l),
(95,272,l)
);
}
);
width = 369;
}
);
unicode = 59;
},
{
glyphname = exclam;
lastChange = "2024-05-09 10:52:55 +0000";
layers = (
{
layerId = m01;
shapes = (
{
closed = 1;
nodes = (
(215,245,l),
(288,382,l),
(359,666,l),
(311,710,l),
(193,708,l),
(149,601,l),
(124,242,l),
(171,222,l)
);
},
{
closed = 1;
nodes = (
(229,11,l),
(235,78,l),
(184,168,l),
(73,130,l),
(57,36,l),
(112,-15,l)
);
}
);
width = 318;
}
);
unicode = 33;
},
{
glyphname = exclamdown;
lastChange = "2024-05-09 10:52:55 +0000";
layers = (
{
layerId = m01;
shapes = (
{
closed = 1;
nodes = (
(127,255,l),
(0,-104,l),
(-2,-211,l),
(114,-213,l),
(182,-170,l),
(231,115,l),
(216,252,l),
(182,274,l)
);
},
{
closed = 1;
nodes = (
(148,461,l),
(124,367,l),
(219,329,l),
(308,419,l),
(330,486,l),
(224,512,l)
);
}
);
width = 318;
}
);
unicode = 161;
},
{
glyphname = question;
lastChange = "2024-05-09 10:52:55 +0000";
layers = (
{
layerId = m01;
shapes = (
{
closed = 1;
nodes = (
(324,286,l),
(339,379,l),
(512,463,l),
(539,732,l),
(273,677,l),
(177,635,l),
(369,647,l),
(346,460,l),
(286,466,l),
(203,335,l),
(201,254,l),
(287,247,l)
);
},
{
closed = 1;
nodes = (
(316,7,l),
(323,75,l),
(271,165,l),
(161,127,l),
(145,32,l),
(199,-18,l)
);
},
{
closed = 1;
nodes = (
(243,470,l),
(306,600,l),
(408,628,l),
(420,747,l),
(188,721,l),
(146,625,l),
(94,441,l),
(192,417,l)
);
}
);
width = 504;
}
);
unicode = 63;
},
{
glyphname = questiondown;
lastChange = "2024-05-09 10:52:55 +0000";
layers = (
{
layerId = m01;
shapes = (
{
closed = 1;
nodes = (
(199,244,l),
(166,163,l),
(194,32,l),
(256,38,l),
(195,-168,l),
(8,-155,l),
(91,-179,l),
(334,-234,l),
(421,34,l),
(284,119,l),
(308,212,l),
(288,250,l)
);
},
{
closed = 1;
nodes = (
(237,466,l),
(213,371,l),
(307,333,l),
(397,423,l),
(419,490,l),
(312,516,l)
);
},
{
closed = 1;
nodes = (
(13,57,l),
(-14,-127,l),
(-13,-223,l),
(208,-250,l),
(247,-130,l),
(157,-102,l),
(149,28,l),
(121,81,l)
);
}
);
width = 480;
}
);
unicode = 191;
},
{
glyphname = bullet;
lastChange = "2024-05-09 10:52:55 +0000";
layers = (
{
layerId = m01;
shapes = (
{
closed = 1;
nodes = (
(382,300,l),
(356,386,l),
(301,430,l),
(188,368,l),
(174,240,l),
(301,189,l)
);
}
);
width = 534;
}
);
unicode = 8226;
},
{
glyphname = asterisk;
lastChange = "2024-05-09 10:52:55 +0000";
layers = (
{
layerId = m01;
shapes = (
{
closed = 1;
nodes = (
(347,547,l),
(265,572,l),
(280,603,l),
(231,678,l),
(148,630,l),
(167,546,l),
(241,452,l)
);
},
{
closed = 1;
nodes = (
(195,356,l),
(328,409,l),
(296,523,l),
(225,452,l),
(203,471,l),
(104,438,l),
(103,351,l)
);
},
{
closed = 1;
nodes = (
(410,358,l),
(424,490,l),
(295,470,l),
(329,395,l),
(300,377,l),
(282,278,l),
(368,269,l)
);
},
{
closed = 1;
nodes = (
(403,455,l),
(426,543,l),
(330,580,l),
(242,494,l),
(220,431,l),
(328,407,l)
);
},
{
closed = 1;
nodes = (
(391,602,l),
(423,605,l),
(487,692,l),
(428,744,l),
(348,679,l),
(268,558,l),
(378,512,l)
);
},
{
closed = 1;
nodes = (
(582,530,l),
(511,573,l),
(383,589,l),
(347,462,l),
(437,494,l),
(444,465,l),
(536,446,l)
);
}
);
width = 534;
}
);
unicode = 42;
},
{
glyphname = numbersign;
lastChange = "2024-05-09 10:52:55 +0000";
layers = (
{
layerId = m01;
shapes = (
{
closed = 1;
nodes = (
(138,-69,l),
(454,603,l),
(480,654,l),
(491,706,l),
(415,728,l),
(342,634,l),
(21,-38,l),
(44,-92,l)
);
},
{
closed = 1;
nodes = (
(400,-69,l),
(715,603,l),
(742,654,l),
(753,706,l),
(670,702,l),
(604,634,l),
(283,-38,l),
(292,-70,l)
);
},
{
closed = 1;
nodes = (
(127,358,l),
(676,383,l),
(729,383,l),
(782,398,l),
(798,481,l),
(698,505,l),
(148,486,l),
(96,437,l)
);
},
{
closed = 1;
nodes = (
(-2,108,l),
(544,123,l),
(597,123,l),
(649,138,l),
(652,230,l),
(566,245,l),
(21,235,l),
(-22,158,l)
);
}
);
width = 753;
}
);
unicode = 35;
},
{
glyphname = slash;
lastChange = "2024-05-09 10:52:55 +0000";
layers = (
{
layerId = m01;
shapes = (
{
closed = 1;
nodes = (
(80,-172,l),
(441,611,l),
(467,662,l),
(479,714,l),
(371,734,l),
(299,639,l),
(-69,-143,l),
(-45,-198,l)
);
}
);
width = 382;
}
);
unicode = 47;
},
{
glyphname = backslash;
lastChange = "2024-05-09 10:52:55 +0000";
layers = (
{
layerId = m01;
shapes = (
{
closed = 1;
nodes = (
(296,-143,l),
(262,639,l),
(229,734,l),
(114,714,l),
(102,662,l),
(107,611,l),
(134,-172,l),
(249,-198,l)
);
}
);
width = 438;
}
);
unicode = 92;
},
{
glyphname = hyphen;
kernLeft = hyphen;
kernRight = hyphen;
lastChange = "2024-05-09 10:52:55 +0000";
layers = (
{
layerId = m01;
shapes = (
{
closed = 1;
nodes = (
(64,272,l),
(42,195,l),
(79,188,l),
(336,193,l),
(361,234,l),
(379,286,l),
(347,322,l),
(96,305,l)
);
}
);
width = 429;
}
);
unicode = 45;
},
{
glyphname = endash;
kernLeft = hyphen;
kernRight = hyphen;
lastChange = "2024-05-09 10:52:55 +0000";
layers = (
{
layerId = m01;
shapes = (
{
closed = 1;
nodes = (
(88,272,l),
(66,195,l),
(103,188,l),
(531,193,l),
(556,234,l),
(574,286,l),
(541,322,l),
(120,305,l)
);
}
);
width = 648;
}
);
unicode = 8211;
},
{
glyphname = emdash;
kernLeft = hyphen;
kernRight = hyphen;
lastChange = "2024-05-09 10:52:55 +0000";
layers = (
{
layerId = m01;
shapes = (
{
closed = 1;
nodes = (
(110,272,l),
(88,195,l),
(125,188,l),
(812,193,l),
(836,234,l),
(854,286,l),
(822,322,l),
(142,305,l)
);
}
);
width = 864;
}
);
unicode = 8212;
},
{
glyphname = underscore;
kernLeft = hyphen;
kernRight = hyphen;
lastChange = "2024-05-09 10:52:55 +0000";
layers = (
{
layerId = m01;
shapes = (
{
closed = 1;
nodes = (
(52,0,l),
(30,-77,l),
(67,-84,l),
(325,-79,l),
(351,-38,l),
(367,14,l),
(335,50,l),
(84,33,l)
);
}
);
width = 480;
}
);
unicode = 95;
},
{
glyphname = parenleft;
lastChange = "2024-05-09 10:52:55 +0000";
layers = (
{
layerId = m01;
shapes = (
{
closed = 1;
nodes = (
(359,714,l),
(410,657,l),
(387,604,l),
(350,560,l),
(262,502,l),
(171,384,l),
(150,50,l),
(229,-7,l),
(265,-76,l),
(177,-140,l),
(31,-57,l),
(30,212,l),
(90,465,l),
(223,658,l)
);
}
);
width = 336;
}
);
unicode = 40;
},
{
glyphname = parenright;
lastChange = "2024-05-09 10:52:55 +0000";
layers = (
{
layerId = m01;
shapes = (
{
closed = 1;
nodes = (
(-11,-140,l),
(-63,-83,l),
(-40,-30,l),
(-2,14,l),
(85,71,l),
(176,190,l),
(198,530,l),
(120,587,l),
(84,656,l),
(172,720,l),
(318,637,l),
(310,325,l),
(258,109,l),
(125,-85,l)
);
}
);
width = 440;
}
);
unicode = 41;
},
{
glyphname = braceleft;
lastChange = "2024-05-09 10:52:55 +0000";
layers = (
{
layerId = m01;
shapes = (
{
closed = 1;
nodes = (
(292,703,l),
(218,658,l),
(177,467,l),
(139,373,l),
(58,296,l),
(108,227,l),
(110,119,l),
(42,-26,l),
(90,-102,l),
(153,-121,l),
(304,-121,l),
(298,-46,l),
(211,9,l),
(257,130,l),
(244,215,l),
(190,296,l),
(295,373,l),
(334,467,l),
(333,577,l),
(445,628,l),
(500,703,l)
);
}
);
width = 425;
}
);
unicode = 123;
},
{
glyphname = braceright;
lastChange = "2024-05-09 10:52:55 +0000";
layers = (
{
layerId = m01;
shapes = (
{
closed = 1;
nodes = (
(167,628,l),
(257,577,l),
(210,467,l),
(209,373,l),
(282,296,l),
(192,215,l),
(143,130,l),
(139,9,l),
(28,-46,l),
(-10,-121,l),
(141,-121,l),
(212,-102,l),
(292,-26,l),
(286,119,l),
(334,227,l),
(414,296,l),
(365,373,l),
(367,467,l),
(408,658,l),
(352,703,l),
(144,703,l)
);
}
);
width = 426;
}
);
unicode = 125;
},
{
glyphname = bracketleft;
lastChange = "2024-05-09 10:52:55 +0000";
layers = (
{
layerId = m01;
shapes = (
{
closed = 1;
nodes = (
(409,594,l),
(265,520,l),
(172,32,l),
(259,-44,l),
(236,-129,l),
(-1,-130,l),
(173,693,l),
(434,703,l)
);
}
);
width = 420;
}
);
unicode = 91;
},
{
glyphname = bracketright;
lastChange = "2024-05-09 10:52:55 +0000";
layers = (
{
layerId = m01;
shapes = (
{
closed = 1;
nodes = (
(432,693,l),
(256,-130,l),
(19,-129,l),
(32,-44,l),
(153,32,l),
(265,520,l),
(154,594,l),
(175,703,l)
);
}
);
width = 420;
}
);
unicode = 93;
},
{
glyphname = quotesinglbase;
kernRight = comma_d;
lastChange = "2024-05-09 10:52:55 +0000";
layers = (
{
layerId = m01;
shapes = (
{
closed = 1;
nodes = (
(105,-116,l),
(170,22,l),
(48,52,l),
(48,-42,l),
(14,-53,l),
(-42,-153,l),
(29,-198,l)
);
},
{
closed = 1;
nodes = (
(170,22,l),
(196,118,l),
(96,158,l),
(3,65,l),
(-20,-4,l),
(91,-30,l)
);
}
);
width = 242;
}
);
unicode = 8218;
},
{
glyphname = quotedblleft;
kernLeft = comma_up;
kernRight = comma_up;
lastChange = "2024-05-09 10:52:55 +0000";
layers = (
{
layerId = m01;
shapes = (
{
closed = 1;
nodes = (
(136,632,l),
(71,494,l),
(193,464,l),
(193,558,l),
(227,569,l),
(282,669,l),
(212,714,l)
);
},
{
closed = 1;
nodes = (
(71,494,l),
(45,398,l),
(145,358,l),
(239,451,l),
(261,520,l),
(150,546,l)
);
},
{
closed = 1;
nodes = (
(362,632,l),
(297,494,l),
(419,464,l),
(419,558,l),
(453,569,l),
(509,669,l),
(439,714,l)
);
},
{
closed = 1;
nodes = (
(297,494,l),
(271,398,l),
(371,358,l),
(465,451,l),
(487,520,l),
(376,546,l)
);
}
);
width = 480;
}
);
unicode = 8220;
},
{
glyphname = quotedblright;
kernLeft = comma_up;
kernRight = comma_up;
lastChange = "2024-05-09 10:52:55 +0000";
layers = (
{
layerId = m01;
shapes = (
{
closed = 1;
nodes = (
(429,440,l),
(495,578,l),
(372,608,l),
(372,514,l),
(339,503,l),
(283,403,l),
(354,358,l)
);
},
{
closed = 1;
nodes = (
(495,578,l),
(520,674,l),
(421,714,l),
(327,621,l),
(304,552,l),
(416,526,l)
);
},
{
closed = 1;
nodes = (
(203,440,l),
(269,578,l),
(146,608,l),
(146,514,l),
(113,503,l),
(56,403,l),
(127,358,l)
);
},
{
closed = 1;
nodes = (
(269,578,l),
(294,674,l),
(195,714,l),
(101,621,l),
(78,552,l),
(190,526,l)
);
}
);
width = 480;
}
);
unicode = 8221;
},
{
glyphname = quoteleft;
kernLeft = comma_up;
kernRight = comma_up;
lastChange = "2024-05-09 10:52:55 +0000";
layers = (
{
layerId = m01;
shapes = (
{
closed = 1;
nodes = (
(136,632,l),
(71,494,l),
(193,464,l),
(193,558,l),
(227,569,l),
(282,669,l),
(212,714,l)
);
},
{
closed = 1;
nodes = (
(71,494,l),
(45,398,l),
(145,358,l),
(239,451,l),
(261,520,l),
(150,546,l)
);
}
);
width = 222;
}
);
unicode = 8216;
},
{
glyphname = quoteright;
kernLeft = comma_up;
kernRight = comma_up;
lastChange = "2024-05-09 10:52:55 +0000";
layers = (
{
layerId = m01;
shapes = (
{
closed = 1;
nodes = (
(203,440,l),
(269,578,l),
(146,608,l),
(146,514,l),
(113,503,l),
(56,403,l),
(127,358,l)
);
},
{
closed = 1;
nodes = (
(269,578,l),
(294,674,l),
(195,714,l),
(101,621,l),
(78,552,l),
(190,526,l)
);
}
);
width = 222;
}
);
unicode = 8217;
},
{
glyphname = guillemetleft;
kernLeft = hyphen;
kernRight = hyphen;
lastChange = "2024-05-09 10:52:55 +0000";
layers = (
{
layerId = m01;
shapes = (
{
closed = 1;
nodes = (
(181,77,l),
(147,75,l),
(22,214,l),
(17,264,l),
(241,457,l),
(282,457,l),
(317,406,l),
(290,348,l),
(162,258,l),
(264,158,l),
(254,111,l)
);
},
{
closed = 1;
nodes = (
(415,93,l),
(381,91,l),
(252,214,l),
(247,264,l),
(472,457,l),
(512,457,l),
(547,406,l),
(521,348,l),
(392,258,l),
(482,178,l),
(472,132,l)
);
}
);
width = 532;
}
);
unicode = 171;
},
{
glyphname = guillemetright;
kernLeft = hyphen;
kernRight = hyphen;
lastChange = "2024-05-09 10:52:55 +0000";
layers = (
{
layerId = m01;
shapes = (
{
closed = 1;
nodes = (
(346,422,l),
(381,424,l),
(506,286,l),
(511,235,l),
(287,42,l),
(246,42,l),
(211,94,l),
(238,151,l),
(366,242,l),
(263,342,l),
(273,388,l)
);
},
{
closed = 1;
nodes = (
(113,406,l),
(146,408,l),
(276,286,l),
(281,235,l),
(56,42,l),
(16,42,l),
(-19,94,l),
(7,151,l),
(136,242,l),
(46,321,l),
(56,367,l)
);
}
);
width = 530;
}
);
unicode = 187;
},
{
glyphname = guilsinglleft;
kernLeft = hyphen;
kernRight = hyphen;
lastChange = "2024-05-09 10:52:55 +0000";
layers = (
{
layerId = m01;
shapes = (
{
closed = 1;
nodes = (
(323,342,l),
(215,242,l),
(268,151,l),
(271,94,l),
(214,42,l),
(173,42,l),
(31,235,l),
(58,286,l),
(241,424,l),
(274,422,l),
(333,388,l)
);
}
);
width = 306;
}
);
unicode = 8249;
},
{
glyphname = guilsinglright;
kernLeft = hyphen;
kernRight = hyphen;
lastChange = "2024-05-09 10:52:55 +0000";
layers = (
{
layerId = m01;
shapes = (
{
closed = 1;
nodes = (
(116,422,l),
(150,424,l),
(276,286,l),
(281,235,l),
(56,42,l),
(16,42,l),
(-19,94,l),
(7,151,l),
(98,242,l),
(33,342,l),
(43,388,l)
);
}
);
width = 302;
}
);
unicode = 8250;
},
{
glyphname = quotedbl;
lastChange = "2024-05-09 10:52:55 +0000";
layers = (
{
layerId = m01;
shapes = (
{
closed = 1;
nodes = (
(216,708,l),
(261,705,l),
(234,581,l),
(221,504,l),
(174,495,l),
(110,531,l),
(136,692,l)
);
},
{
closed = 1;
nodes = (
(329,708,l),
(401,705,l),
(375,581,l),
(362,504,l),
(288,495,l),
(257,531,l),
(283,692,l)
);
}
);
width = 326;
}
);
unicode = 34;
},
{
glyphname = quotesingle;
kernRight = comma_up;
lastChange = "2024-05-09 10:52:55 +0000";
layers = (
{
layerId = m01;
shapes = (
{
closed = 1;
nodes = (
(203,440,l),
(269,578,l),
(146,608,l),
(146,514,l),
(113,503,l),
(56,403,l),
(127,358,l)
);
},
{
closed = 1;
nodes = (
(269,578,l),
(294,674,l),
(195,714,l),
(101,621,l),
(78,552,l),
(190,526,l)
);
}
);
width = 208;
}
);
unicode = 39;
},
{
glyphname = at;
lastChange = "2024-05-09 10:52:55 +0000";
layers = (
{
layerId = m01;
shapes = (
{
closed = 1;
nodes = (
(432,91,l),
(535,142,l),
(565,250,l),
(475,226,l),
(401,208,l),
(362,264,l),
(388,396,l),
(514,373,l),
(563,322,l),
(591,439,l),
(495,487,l),
(406,448,l),
(264,375,l),
(232,194,l),
(260,64,l)
);
},
{
closed = 1;
nodes = (
(684,74,l),
(728,152,l),
(695,152,l),
(664,218,l),
(725,466,l),
(590,487,l),
(569,418,l),
(521,186,l),
(485,127,l),
(499,82,l)
);
},
{
closed = 1;
nodes = (
(684,74,l),
(770,84,l),
(816,142,l),
(886,230,l),
(953,446,l),
(943,601,l),
(767,698,l),
(478,711,l),
(365,668,l),
(172,530,l),
(61,321,l),
(50,120,l),
(114,-44,l),
(208,-109,l),
(443,-147,l),
(692,-105,l),
(713,-10,l),
(649,39,l),
(515,-2,l),
(341,-22,l),
(268,-10,l),
(199,78,l),
(176,217,l),
(209,394,l),
(376,550,l),
(636,602,l),
(772,536,l),
(791,396,l),
(771,300,l),
(745,182,l),
(728,152,l)
);
},
{
closed = 1;
nodes = (
(616,434,l),
(665,343,l),
(733,377,l),
(757,413,l),
(758,489,l),
(590,487,l)
);
}
);
width = 976;
}
);
unicode = 64;
},
{
glyphname = ampersand;
lastChange = "2024-05-09 10:52:55 +0000";
layers = (
{
layerId = m01;
shapes = (
{
closed = 1;
nodes = (
(584,2,l),
(613,67,l),
(622,142,l),
(343,366,l),
(262,487,l),
(289,648,l),
(167,660,l),
(94,563,l),
(118,461,l),
(184,347,l),
(375,182,l),
(484,-10,l)
);
},
{
closed = 1;
nodes = (
(391,60,l),
(436,124,l),
(529,202,l),
(608,252,l),
(650,306,l),
(609,386,l),
(504,331,l),
(388,242,l),
(228,62,l),
(143,109,l),
(185,233,l),
(214,194,l),
(464,395,l),
(556,524,l),
(463,486,l),
(404,495,l),
(220,390,l),
(31,229,l),
(-34,101,l),
(-10,5,l),
(126,-58,l)
);
},
{
closed = 1;
nodes = (
(575,493,l),
(608,575,l),
(582,654,l),
(299,716,l),
(168,604,l),
(194,494,l),
(311,564,l),
(391,597,l),
(410,545,l),
(350,438,l)
);
}
);
width = 654;
}
);
unicode = 38;
},
{
glyphname = section;
lastChange = "2024-05-09 10:52:55 +0000";
layers = (
{
layerId = m01;
shapes = (
{
closed = 1;
nodes = (
(194,294,l),
(263,337,l),
(286,514,l),
(350,588,l),
(133,539,l),
(93,294,l)
);
},
{
closed = 1;
nodes = (
(513,369,l),
(444,434,l),
(110,358,l),
(111,352,l),
(386,317,l)
);
},
{
closed = 1;
nodes = (
(444,137,l),
(513,369,l),
(396,411,l),
(317,144,l)
);
},
{
closed = 1;
nodes = (
(517,490,l),
(574,539,l),
(577,628,l),
(398,622,l),
(194,580,l),
(220,469,l),
(389,518,l),
(406,453,l)
);
},
{
closed = 1;
nodes = (
(140,133,l),
(198,112,l),
(220,289,l),
(304,358,l),
(95,316,l),
(67,134,l)
);
},
{
closed = 1;
nodes = (
(389,-38,l),
(174,33,l),
(174,62,l),
(136,70,l),
(-9,18,l),
(-35,-96,l),
(191,-110,l)
);
},
{
closed = 1;
nodes = (
(446,144,l),
(378,209,l),
(67,133,l),
(69,127,l),
(319,92,l)
);
},
{
closed = 1;
nodes = (
(389,-38,l),
(446,144,l),
(330,186,l),
(226,-93,l)
);
}
);
width = 531;
}
);
unicode = 167;
},
{
glyphname = bar;
lastChange = "2024-05-09 10:52:55 +0000";
layers = (
{
layerId = m01;
shapes = (
{
closed = 1;
nodes = (
(221,691,l),
(307,660,l),
(126,-175,l),
(23,-186,l),
(2,-108,l),
(170,654,l)
);
}
);
width = 302;
}
);
unicode = 124;
},
{
glyphname = dollar;
lastChange = "2024-05-09 10:52:55 +0000";
layers = (
{
layerId = m01;
shapes = (
{
closed = 1;
nodes = (
(287,647,l),
(419,694,l),
(139,605,l),
(54,313,l),
(160,284,l),
(229,313,l)
);
},
{
closed = 1;
nodes = (
(435,22,l),
(165,83,l),
(155,114,l),
(114,127,l),
(-4,83,l),
(-29,-31,l),
(157,-65,l)
);
},
{
closed = 1;
nodes = (
(435,22,l),
(524,346,l),
(379,315,l),
(183,-48,l)
);
},
{
closed = 1;
nodes = (
(524,346,l),
(456,410,l),
(61,334,l),
(44,270,l),
(381,235,l)
);
},
{
closed = 1;
nodes = (
(536,493,l),
(597,611,l),
(600,700,l),
(419,694,l),
(216,652,l),
(191,602,l),
(242,541,l),
(411,590,l),
(424,456,l)
);
},
{
closed = 1;
nodes = (
(111,-127,l),
(194,-142,l),
(238,-112,l),
(278,31,l),
(241,46,l),
(160,57,l)
);
},
{
closed = 1;
nodes = (
(479,774,l),
(396,789,l),
(352,759,l),
(314,579,l),
(365,606,l),
(430,590,l)
);
}
);
width = 538;
}
);
unicode = 36;
},
{
glyphname = euro;
lastChange = "2024-05-09 10:52:55 +0000";
layers = (
{
layerId = m01;
shapes = (
{
closed = 1;
nodes = (
(112,441,l),
(90,35,l),
(310,59,l),
(221,163,l),
(224,257,l),
(321,502,l),
(365,538,l),
(494,662,l),
(415,694,l),
(209,596,l)
);
},
{
closed = 1;
nodes = (
(553,74,l),
(608,163,l),
(546,193,l),
(417,94,l),
(217,60,l),
(90,35,l),
(127,-20,l),
(348,-30,l)
);
},
{
closed = 1;
nodes = (
(441,564,l),
(557,494,l),
(652,538,l),
(671,626,l),
(569,630,l)
);
},
{
closed = 1;
nodes = (
(546,702,l),
(273,603,l),
(175,498,l),
(217,460,l),
(671,626,l),
(585,679,l)
);
},
{
closed = 1;
nodes = (
(33,338,l),
(47,301,l),
(439,329,l),
(475,378,l),
(492,450,l),
(57,397,l)
);
},
{
closed = 1;
nodes = (
(24,201,l),
(38,163,l),
(373,178,l),
(423,241,l),
(433,290,l),
(49,259,l)
);
}
);
width = 645;
}
);
unicode = 8364;
},
{
glyphname = plus;
lastChange = "2024-05-09 10:52:55 +0000";
layers = (
{
layerId = m01;
shapes = (
{
closed = 1;
nodes = (
(110,272,l),
(88,195,l),
(125,188,l),
(383,193,l),
(408,234,l),
(425,286,l),
(393,322,l),
(142,305,l)
);
},
{
closed = 1;
nodes = (
(310,409,l),
(234,414,l),
(219,376,l),
(168,119,l),
(205,102,l),
(257,97,l),
(302,136,l),
(336,384,l)
);
}
);
width = 480;
}
);
unicode = 43;
},
{
glyphname = equal;
lastChange = "2024-05-09 10:52:55 +0000";
layers = (
{
layerId = m01;
shapes = (
{
closed = 1;
nodes = (
(138,404,l),
(116,327,l),
(153,320,l),
(411,325,l),
(437,366,l),
(453,418,l),
(421,454,l),
(170,437,l)
);
},
{
closed = 1;
nodes = (
(392,158,l),
(413,234,l),
(378,242,l),
(120,237,l),
(94,196,l),
(77,143,l),
(109,107,l),
(361,125,l)
);
}
);
width = 480;
}
);
unicode = 61;
},
{
glyphname = greater;
lastChange = "2024-05-09 10:52:55 +0000";
layers = (
{
layerId = m01;
shapes = (
{
closed = 1;
nodes = (
(50,398,l),
(75,366,l),
(296,229,l),
(25,120,l),
(-22,43,l),
(-3,6,l),
(41,-5,l),
(516,173,l),
(551,220,l),
(179,490,l),
(90,448,l)
);
}
);
width = 560;
}
);
unicode = 62;
},
{
glyphname = less;
lastChange = "2024-05-09 10:52:55 +0000";
layers = (
{
layerId = m01;
shapes = (
{
closed = 1;
nodes = (
(523,86,l),
(499,119,l),
(277,256,l),
(548,365,l),
(596,442,l),
(576,478,l),
(533,490,l),
(58,312,l),
(22,265,l),
(395,-5,l),
(484,37,l)
);
}
);
width = 560;
}
);
unicode = 60;
},
{
glyphname = percent;
lastChange = "2024-05-09 10:52:55 +0000";
layers = (
{
layerId = m01;
shapes = (
{
closed = 1;
nodes = (
(233,-172,l),
(726,586,l),
(752,637,l),
(763,688,l),
(656,708,l),
(583,614,l),
(84,-143,l),
(108,-198,l)
);
},
{
closed = 1;
nodes = (
(334,306,l),
(360,362,l),
(347,418,l),
(72,364,l),
(111,341,l),
(261,274,l)
);
},
{
closed = 1;
nodes = (
(136,282,l),
(218,346,l),
(237,632,l),
(193,643,l),
(140,626,l),
(57,528,l),
(23,270,l)
);
},
{
closed = 1;
nodes = (
(732,-111,l),
(804,-24,l),
(686,-4,l),
(437,8,l),
(416,-93,l),
(626,-131,l)
);
},
{
closed = 1;
nodes = (
(504,-79,l),
(617,102,l),
(666,235,l),
(526,232,l),
(372,-68,l),
(416,-93,l)
);
},
{
closed = 1;
nodes = (
(437,602,l),
(458,703,l),
(249,698,l),
(143,678,l),
(71,591,l),
(188,571,l)
);
},
{
closed = 1;
nodes = (
(375,332,l),
(503,678,l),
(458,703,l),
(370,690,l),
(293,533,l),
(236,329,l)
);
},
{
closed = 1;
nodes = (
(734,-59,l),
(818,39,l),
(894,296,l),
(780,284,l),
(697,219,l),
(637,-65,l),
(682,-76,l)
);
},
{
closed = 1;
nodes = (
(845,202,l),
(825,322,l),
(640,290,l),
(568,258,l),
(542,202,l),
(555,146,l)
);
}
);
width = 886;
}
);
unicode = 37;
},
{
glyphname = upArrow;
lastChange = "2024-05-09 10:52:55 +0000";
layers = (
{
layerId = m01;
shapes = (
{
closed = 1;
nodes = (
(361,569,l),
(117,310,l),
(43,227,l),
(51,153,l),
(140,136,l),
(508,525,l),
(467,614,l)
);
},
{
closed = 1;
nodes = (
(346,478,l),
(414,307,l),
(549,134,l),
(643,168,l),
(673,237,l),
(508,525,l),
(450,558,l),
(332,525,l)
);
},
{
closed = 1;
nodes = (
(204,-71,l),
(288,-62,l),
(401,22,l),
(412,372,l),
(472,489,l),
(404,446,l),
(291,366,l),
(325,354,l),
(191,-28,l)
);
}
);
width = 728;
}
);
unicode = 8593;
},
{
glyphname = northEastArrow;
lastChange = "2024-05-09 10:52:55 +0000";
layers = (
{
layerId = m01;
shapes = (
{
closed = 1;
nodes = (
(608,494,l),
(283,470,l),
(181,460,l),
(125,394,l),
(154,312,l),
(643,346,l),
(695,448,l)
);
},
{
closed = 1;
nodes = (
(527,430,l),
(424,241,l),
(350,-2,l),
(424,-46,l),
(493,-14,l),
(643,346,l),
(641,416,l),
(558,479,l)
);
},
{
closed = 1;
nodes = (
(20,96,l),
(67,39,l),
(190,20,l),
(474,295,l),
(596,344,l),
(529,362,l),
(411,383,l),
(418,347,l),
(49,141,l)
);
}
);
width = 705;
}
);
unicode = 8599;
},
{
glyphname = rightArrow;
lastChange = "2024-05-09 10:52:55 +0000";
layers = (
{
layerId = m01;
shapes = (
{
closed = 1;
nodes = (
(707,341,l),
(488,530,l),
(418,586,l),
(338,562,l),
(302,470,l),
(630,184,l),
(732,243,l)
);
},
{
closed = 1;
nodes = (
(615,335,l),
(423,231,l),
(212,60,l),
(228,-27,l),
(294,-42,l),
(630,184,l),
(677,249,l),
(667,360,l)
);
},
{
closed = 1;
nodes = (
(72,362,l),
(63,280,l),
(127,184,l),
(490,248,l),
(600,213,l),
(570,272,l),
(510,368,l),
(491,330,l),
(119,384,l)
);
}
);
width = 786;
}
);
unicode = 8594;
},
{
glyphname = southEastArrow;
lastChange = "2024-05-09 10:52:55 +0000";
layers = (
{
layerId = m01;
shapes = (
{
closed = 1;
nodes = (
(586,102,l),
(111,135,l),
(48,54,l),
(75,-13,l),
(173,-23,l),
(488,-46,l),
(595,-1,l)
);
},
{
closed = 1;
nodes = (
(554,31,l),
(586,102,l),
(589,461,l),
(534,494,l),
(441,450,l),
(412,206,l),
(434,17,l),
(444,-32,l)
);
},
{
closed = 1;
nodes = (
(361,100,l),
(338,64,l),
(465,86,l),
(540,103,l),
(439,152,l),
(271,427,l),
(140,408,l),
(69,351,l),
(79,306,l)
);
}
);
width = 700;
}
);
unicode = 8600;
},
{
glyphname = downArrow;
lastChange = "2024-05-09 10:52:55 +0000";
layers = (
{
layerId = m01;
shapes = (
{
closed = 1;
nodes = (
(374,-26,l),
(618,234,l),
(692,316,l),
(684,390,l),
(595,407,l),
(227,18,l),
(268,-71,l)
);
},
{
closed = 1;
nodes = (
(389,66,l),
(321,236,l),
(186,410,l),
(91,375,l),
(62,306,l),
(227,18,l),
(285,-14,l),
(403,18,l)
);
},
{
closed = 1;
nodes = (
(531,614,l),
(448,606,l),
(334,522,l),
(323,171,l),
(263,54,l),
(332,98,l),
(445,178,l),
(410,189,l),
(544,571,l)
);
}
);
width = 730;
}
);
unicode = 8595;
},
{
glyphname = southWestArrow;
lastChange = "2024-05-09 10:52:55 +0000";
layers = (
{
layerId = m01;
shapes = (
{
closed = 1;
nodes = (
(88,-46,l),
(413,-23,l),
(514,-13,l),
(570,54,l),
(540,135,l),
(52,102,l),
(0,-1,l)
);
},
{
closed = 1;
nodes = (
(167,17,l),
(271,206,l),
(344,450,l),
(272,494,l),
(202,461,l),
(52,102,l),
(53,31,l),
(137,-32,l)
);
},
{
closed = 1;
nodes = (
(674,351,l),
(627,408,l),
(505,427,l),
(220,152,l),
(99,103,l),
(166,86,l),
(284,64,l),
(276,100,l),
(647,306,l)
);
}
);
width = 705;
}
);
unicode = 8601;
},
{
glyphname = leftArrow;
lastChange = "2024-05-09 10:52:55 +0000";
layers = (
{
layerId = m01;
shapes = (
{
closed = 1;
nodes = (
(124,184,l),
(574,470,l),
(576,562,l),
(506,586,l),
(412,530,l),
(113,341,l),
(46,243,l)
);
},
{
closed = 1;
nodes = (
(105,249,l),
(124,184,l),
(364,-42,l),
(436,-27,l),
(488,60,l),
(351,231,l),
(203,335,l),
(161,360,l)
);
},
{
closed = 1;
nodes = (
(325,330,l),
(322,368,l),
(222,272,l),
(166,213,l),
(290,248,l),
(627,184,l),
(731,280,l),
(758,362,l),
(719,384,l)
);
}
);
width = 786;
}
);
unicode = 8592;
},
{
glyphname = northWestArrow;
lastChange = "2024-05-09 10:52:55 +0000";
layers = (
{
layerId = m01;
shapes = (
{
closed = 1;
nodes = (
(104,346,l),
(578,312,l),
(642,394,l),
(615,460,l),
(518,470,l),
(203,494,l),
(95,448,l)
);
},
{
closed = 1;
nodes = (
(135,416,l),
(104,346,l),
(101,-14,l),
(157,-46,l),
(248,-2,l),
(278,241,l),
(255,430,l),
(246,479,l)
);
},
{
closed = 1;
nodes = (
(328,347,l),
(352,383,l),
(225,362,l),
(150,344,l),
(250,295,l),
(419,20,l),
(549,39,l),
(620,96,l),
(612,141,l)
);
}
);
width = 705;
}
);
unicode = 8598;
},
{
glyphname = leftRightArrow;
lastChange = "2024-05-09 10:52:55 +0000";
layers = (
{
layerId = m01;
shapes = (
{
closed = 1;
nodes = (
(84,202,l),
(303,14,l),
(373,-42,l),
(453,-18,l),
(489,74,l),
(161,359,l),
(59,300,l)
);
},
{
closed = 1;
nodes = (
(176,208,l),
(368,312,l),
(578,483,l),
(563,570,l),
(497,586,l),
(161,359,l),
(114,294,l),
(124,183,l)
);
},
{
closed = 1;
nodes = (
(560,161,l),
(740,263,l),
(598,359,l),
(300,295,l),
(191,330,l),
(221,271,l),
(281,175,l),
(300,213,l),
(473,184,l)
);
},
{
closed = 1;
nodes = (
(1087,359,l),
(637,74,l),
(635,-18,l),
(705,-42,l),
(799,14,l),
(1098,202,l),
(1165,300,l)
);
},
{
closed = 1;
nodes = (
(1106,294,l),
(1087,359,l),
(847,586,l),
(775,570,l),
(722,483,l),
(860,312,l),
(1008,208,l),
(1050,183,l)
);
},
{
closed = 1;
nodes = (
(971,215,l),
(976,178,l),
(1076,274,l),
(1132,333,l),
(1007,298,l),
(607,359,l),
(499,266,l),
(473,184,l),
(665,186,l)
);
}
);
width = 1206;
}
);
unicode = 8596;
},
{
glyphname = upDownArrow;
lastChange = "2024-05-09 10:52:55 +0000";
layers = (
{
layerId = m01;
shapes = (
{
closed = 1;
nodes = (
(328,-235,l),
(572,24,l),
(645,106,l),
(637,181,l),
(549,198,l),
(180,-191,l),
(221,-281,l)
);
},
{
closed = 1;
nodes = (
(342,-144,l),
(274,26,l),
(139,200,l),
(45,166,l),
(15,97,l),
(180,-191,l),
(238,-224,l),
(356,-191,l)
);
},
{
closed = 1;
nodes = (
(439,256,l),
(403,408,l),
(274,181,l),
(277,-38,l),
(217,-155,l),
(285,-112,l),
(398,-32,l),
(363,-21,l),
(430,158,l)
);
},
{
closed = 1;
nodes = (
(355,634,l),
(559,245,l),
(654,262,l),
(694,336,l),
(656,418,l),
(522,678,l),
(434,723,l)
);
},
{
closed = 1;
nodes = (
(427,666,l),
(355,634,l),
(68,346,l),
(69,277,l),
(148,242,l),
(357,416,l),
(497,586,l),
(531,634,l)
);
},
{
closed = 1;
nodes = (
(481,549,l),
(522,560,l),
(443,640,l),
(393,683,l),
(403,566,l),
(274,181,l),
(329,66,l),
(430,158,l),
(447,248,l)
);
}
);
width = 728;
}
);
unicode = 8597;
},
{
glyphname = commaaccentcomb;
lastChange = "2024-05-09 10:52:55 +0000";
layers = (
{
anchors = (
{
name = _bottom;
pos = (169,103);
}
);
layerId = m01;
shapes = (
{
closed = 1;
nodes = (
(-15,-65,l),
(23,-128,l),
(70,-137,l),
(130,-77,l),
(191,9,l),
(147,38,l),
(52,6,l)
);
}
);
width = 240;
}
);
unicode = 806;
},
{
glyphname = dieresis;
lastChange = "2024-05-09 10:52:55 +0000";
layers = (
{
anchors = (
{
name = _top;
pos = (221,466);
}
);
layerId = m01;
shapes = (
{
closed = 1;
nodes = (
(370,502,l),
(436,566,l),
(438,678,l),
(369,672,l),
(262,605,l),
(275,501,l)
);
},
{
closed = 1;
nodes = (
(139,492,l),
(245,558,l),
(233,663,l),
(139,662,l),
(72,598,l),
(71,486,l)
);
}
);
width = 371;
}
);
unicode = 168;
},
{
glyphname = dotaccent;
lastChange = "2024-05-09 10:52:55 +0000";
layers = (
{
anchors = (
{
name = _top;
pos = (167,481);
}
);
layerId = m01;
shapes = (
{
closed = 1;
nodes = (
(278,542,l),
(284,609,l),
(233,699,l),
(123,661,l),
(107,566,l),
(160,516,l)
);
}
);
width = 240;
}
);
unicode = 729;
},
{
glyphname = grave;
lastChange = "2024-05-20 10:15:52 +0000";
layers = (
{
anchors = (
{
name = _top;
pos = (169,448);
}
);
layerId = m01;
shapes = (
{
closed = 1;
nodes = (
(306,556,l),
(269,648,l),
(123,669,l),
(54,577,l),
(194,490,l),
(272,482,l)
);
}
);
width = 240;
}
);
unicode = 96;
},
{
glyphname = acute;
lastChange = "2024-05-20 10:15:16 +0000";
layers = (
{
anchors = (
{
name = _top;
pos = (157,448);
}
);
layerId = m01;
shapes = (
{
closed = 1;
nodes = (
(178,490,l),
(300,582,l),
(278,657,l),
(140,647,l),
(64,555,l),
(96,482,l)
);
}
);
width = 240;
}
);
unicode = 180;
},
{
glyphname = hungarumlaut;
lastChange = "2024-05-09 10:52:55 +0000";
layers = (
{
anchors = (
{
name = _top;
pos = (194,506);
}
);
layerId = m01;
shapes = (
{
closed = 1;
nodes = (
(76,526,l),
(163,526,l),
(295,684,l),
(269,746,l),
(216,741,l),
(65,566,l)
);
},
{
closed = 1;
nodes = (
(239,526,l),
(310,526,l),
(450,668,l),
(431,746,l),
(346,739,l),
(227,566,l)
);
}
);
width = 363;
}
);
unicode = 733;
},
{
glyphname = circumflex;
lastChange = "2024-05-09 10:52:55 +0000";
layers = (
{
anchors = (
{
name = _top;
pos = (230,455);
}
);
layerId = m01;
shapes = (
{
closed = 1;
nodes = (
(379,482,l),
(423,530,l),
(335,652,l),
(230,656,l),
(227,558,l),
(322,474,l)
);
},
{
closed = 1;
nodes = (
(238,532,l),
(277,630,l),
(170,626,l),
(50,525,l),
(74,478,l),
(127,469,l)
);
}
);
width = 373;
}
);
unicode = 710;
},
{
glyphname = caron;
lastChange = "2024-05-09 10:52:55 +0000";
layers = (
{
anchors = (
{
name = _top;
pos = (218,460);
}
);
layerId = m01;
shapes = (
{
closed = 1;
nodes = (
(308,497,l),
(449,619,l),
(424,666,l),
(371,675,l),
(240,591,l),
(202,493,l)
);
},
{
closed = 1;
nodes = (
(262,617,l),
(179,680,l),
(121,671,l),
(77,624,l),
(154,522,l),
(260,518,l)
);
}
);
width = 373;
}
);
unicode = 711;
},
{
glyphname = breve;
lastChange = "2024-05-09 10:52:55 +0000";
layers = (
{
anchors = (
{
name = _top;
pos = (208,514);
}
);
layerId = m01;
shapes = (
{
closed = 1;
nodes = (
(120,669,l),
(187,661,l),
(187,612,l),
(225,595,l),
(252,611,l),
(287,673,l),
(359,680,l),
(381,669,l),
(348,574,l),
(264,531,l),
(130,522,l),
(67,575,l),
(80,638,l)
);
}
);
width = 294;
}
);
unicode = 728;
},
{
glyphname = ring;
lastChange = "2024-05-09 10:52:55 +0000";
layers = (
{
anchors = (
{
name = _top;
pos = (173,474);
}
);
layerId = m01;
shapes = (
{
closed = 1;
nodes = (
(172,522,l),
(170,577,l),
(215,632,l),
(180,646,l),
(101,633,l),
(76,552,l),
(110,487,l)
);
},
{
closed = 1;
nodes = (
(301,520,l),
(236,570,l),
(196,542,l),
(163,558,l),
(110,487,l),
(179,482,l),
(256,480,l)
);
},
{
closed = 1;
nodes = (
(314,582,l),
(331,642,l),
(234,630,l),
(222,574,l),
(212,552,l),
(214,534,l),
(301,520,l)
);
},
{
closed = 1;
nodes = (
(219,619,l),
(331,642,l),
(339,683,l),
(197,678,l),
(120,666,l),
(111,608,l)
);
}
);
width = 250;
}
);
unicode = 730;
},
{
glyphname = tilde;
lastChange = "2024-05-09 10:52:55 +0000";
layers = (
{
anchors = (
{
name = _top;
pos = (215,490);
}
);
layerId = m01;
shapes = (
{
closed = 1;
nodes = (
(102,504,l),
(126,509,l),
(147,549,l),
(186,581,l),
(218,543,l),
(259,506,l),
(292,515,l),
(361,591,l),
(383,692,l),
(353,709,l),
(284,647,l),
(242,680,l),
(196,715,l),
(119,674,l),
(59,538,l)
);
}
);
width = 291;
}
);
unicode = 732;
},
{
glyphname = macron;
lastChange = "2024-05-09 10:52:55 +0000";
layers = (
{
anchors = (
{
name = _top;
pos = (166,506);
}
);
layerId = m01;
shapes = (
{
closed = 1;
nodes = (
(18,613,l),
(23,526,l),
(204,520,l),
(311,526,l),
(351,580,l),
(337,657,l),
(66,657,l)
);
}
);
width = 243;
}
);
unicode = 175;
},
{
glyphname = cedilla;
lastChange = "2024-05-09 10:52:55 +0000";
layers = (
{
anchors = (
{
name = _bottom;
pos = (108,70);
}
);
layerId = m01;
shapes = (
{
closed = 1;
nodes = (
(128,-238,l),
(138,-191,l),
(133,-142,l),
(82,-118,l),
(45,-159,l),
(0,-148,l),
(13,-89,l),
(54,-117,l),
(139,-54,l),
(160,95,l),
(16,103,l),
(0,23,l),
(42,-16,l),
(-66,-49,l),
(-109,-159,l),
(-83,-213,l),
(-7,-246,l)
);
}
);
width = 240;
}
);
unicode = 184;
},
{
glyphname = ogonek;
lastChange = "2024-05-09 10:52:55 +0000";
layers = (
{
anchors = (
{
name = _bottom;
pos = (103,8);
}
);
layerId = m01;
shapes = (
{
closed = 1;
nodes = (
(183,-190,l),
(179,-158,l),
(99,-149,l),
(90,-39,l),
(179,7,l),
(190,58,l),
(98,56,l),
(87,6,l),
(-41,-70,l),
(-69,-169,l),
(37,-244,l)
);
}
);
width = 240;
}
);
unicode = 731;
},
{
export = 0;
glyphname = _i;
lastChange = "2024-05-09 10:52:55 +0000";
layers = (
{
anchors = (
{
name = right;
pos = (312,330);
}
);
layerId = m01;
shapes = (
{
closed = 1;
nodes = (
(254,12,l),
(269,84,l),
(238,145,l),
(277,330,l),
(327,526,l),
(73,485,l),
(47,407,l),
(65,372,l),
(99,361,l),
(50,130,l),
(11,95,l),
(-3,30,l),
(42,-21,l)
);
}
);
width = 542;
}
);
},
